<?xml version="1.0" encoding="UTF-8" standalone="no"?>
<svg width="102px" height="102px" viewBox="0 0 102 102" version="1.1" xmlns="http://www.w3.org/2000/svg" xmlns:xlink="http://www.w3.org/1999/xlink" xmlns:sketch="http://www.bohemiancoding.com/sketch/ns">
    <!-- Generator: Sketch 3.0 (7573) - http://www.bohemiancoding.com/sketch -->
    <title>icn_hosting</title>
    <description>Created with Sketch.</description>
    <defs>
        <path id="path-1" d="M0.06,0 L40,0 L40,50 L0.06,50 L0.06,0 Z"></path>
    </defs>
    <g id="desktop" stroke="none" stroke-width="1" fill="none" fill-rule="evenodd" sketch:type="MSPage">
        <g id="overview" sketch:type="MSArtboardGroup" transform="translate(-1425.000000, -1917.000000)">
            <g sketch:type="MSLayerGroup" id="services">
                <g transform="translate(364.000000, 1482.000000)">
                    <g id="hosting" transform="translate(885.000000, 270.000000)">
                        <g id="icn_hosting" transform="translate(176.000000, 165.000000)">
                            <circle id="Oval-6-copy-2" stroke="#88BACA" stroke-width="2" sketch:type="MSShapeGroup" cx="51" cy="51" r="51"></circle>
                            <g id="database" transform="translate(31.000000, 26.000000)">
                                <mask id="mask-2" sketch:name="Clip 2" fill="white">
                                    <use xlink:href="#path-1"></use>
                                </mask>
                                <g id="Clip-2"></g>
                                <path d="M40,14 L40,4 C40,1.791 38.164,0 36,0 L4,0 C1.836,0 0,1.791 0,4 L0,14 C0,15.201 0.555,16.265 1.398,17 C0.555,17.734 0,18.799 0,20 L0,30 C0,31.201 0.555,32.265 1.398,33 C0.555,33.734 0,34.799 0,36 L0,46 C0,48.209 1.836,50 4,50 L36,50 C38.164,50 40,48.209 40,46 L40,36 C40,34.799 39.445,33.734 38.602,33 C39.445,32.265 40,31.201 40,30 L40,20 C40,18.799 39.445,17.734 38.602,17 C39.445,16.265 40,15.201 40,14 L40,14 Z M38,36 L38,46 C38,47.101 37.078,48 36,48 L4,48 C2.922,48 2,47.101 2,46 L2,36 C2,34.896 2.922,34 4,34 L36,34 C37.078,34 38,34.896 38,36 L38,36 Z M38,20 L38,30 C38,31.101 37.078,32 36,32 L4,32 C2.922,32 2,31.101 2,30 L2,20 C2,18.897 2.922,18 4,18 L36,18 C37.078,18 38,18.897 38,20 L38,20 Z M4,16 C2.922,16 2,15.102 2,14 L2,4 C2,2.896 2.922,2 4,2 L36,2 C37.078,2 38,2.896 38,4 L38,14 C38,15.102 37.078,16 36,16 L4,16 L4,16 Z" id="Fill-1" stroke="#88BACA" fill="#88BACA" sketch:type="MSShapeGroup" mask="url(#mask-2)"></path>
                            </g>
                        </g>
                    </g>
                </g>
            </g>
        </g>
    </g>
</svg>