<?xml version="1.0" encoding="UTF-8" standalone="no"?>
<svg width="60px" height="60px" viewBox="0 0 60 60" version="1.1" xmlns="http://www.w3.org/2000/svg" xmlns:xlink="http://www.w3.org/1999/xlink" xmlns:sketch="http://www.bohemiancoding.com/sketch/ns">
    <!-- Generator: Sketch 3.0 (7573) - http://www.bohemiancoding.com/sketch -->
    <title>icn_hosting_small</title>
    <description>Created with Sketch.</description>
    <defs>
        <path id="path-1" d="M0.0352941176,0 L23.5294118,0 L23.5294118,29.4117647 L0.0352941176,29.4117647 L0.0352941176,0 Z"></path>
    </defs>
    <g id="desktop" stroke="none" stroke-width="1" fill="none" fill-rule="evenodd" sketch:type="MSPage">
        <g id="overview" sketch:type="MSArtboardGroup" transform="translate(-990.000000, -7116.000000)">
            <g sketch:type="MSLayerGroup" id="hosting">
                <g transform="translate(345.000000, 7116.000000)">
                    <g id="icn_hosting_small" transform="translate(645.000000, 0.000000)">
                        <circle id="Oval-6-copy-2" stroke="#88BACA" stroke-width="2" sketch:type="MSShapeGroup" cx="30" cy="30" r="30"></circle>
                        <g id="database" transform="translate(18.235294, 15.294118)">
                            <mask id="mask-2" sketch:name="Clip 2" fill="white">
                                <use xlink:href="#path-1"></use>
                            </mask>
                            <g id="Clip-2"></g>
                            <path d="M23.5294118,8.23529412 L23.5294118,2.35294118 C23.5294118,1.05352941 22.4494118,0 21.1764706,0 L2.35294118,0 C1.08,0 0,1.05352941 0,2.35294118 L0,8.23529412 C0,8.94176471 0.326470588,9.56764706 0.822352941,10 C0.326470588,10.4317647 0,11.0582353 0,11.7647059 L0,17.6470588 C0,18.3535294 0.326470588,18.9794118 0.822352941,19.4117647 C0.326470588,19.8435294 0,20.47 0,21.1764706 L0,27.0588235 C0,28.3582353 1.08,29.4117647 2.35294118,29.4117647 L21.1764706,29.4117647 C22.4494118,29.4117647 23.5294118,28.3582353 23.5294118,27.0588235 L23.5294118,21.1764706 C23.5294118,20.47 23.2029412,19.8435294 22.7070588,19.4117647 C23.2029412,18.9794118 23.5294118,18.3535294 23.5294118,17.6470588 L23.5294118,11.7647059 C23.5294118,11.0582353 23.2029412,10.4317647 22.7070588,10 C23.2029412,9.56764706 23.5294118,8.94176471 23.5294118,8.23529412 L23.5294118,8.23529412 Z M22.3529412,21.1764706 L22.3529412,27.0588235 C22.3529412,27.7064706 21.8105882,28.2352941 21.1764706,28.2352941 L2.35294118,28.2352941 C1.71882353,28.2352941 1.17647059,27.7064706 1.17647059,27.0588235 L1.17647059,21.1764706 C1.17647059,20.5270588 1.71882353,20 2.35294118,20 L21.1764706,20 C21.8105882,20 22.3529412,20.5270588 22.3529412,21.1764706 L22.3529412,21.1764706 Z M22.3529412,11.7647059 L22.3529412,17.6470588 C22.3529412,18.2947059 21.8105882,18.8235294 21.1764706,18.8235294 L2.35294118,18.8235294 C1.71882353,18.8235294 1.17647059,18.2947059 1.17647059,17.6470588 L1.17647059,11.7647059 C1.17647059,11.1158824 1.71882353,10.5882353 2.35294118,10.5882353 L21.1764706,10.5882353 C21.8105882,10.5882353 22.3529412,11.1158824 22.3529412,11.7647059 L22.3529412,11.7647059 Z M2.35294118,9.41176471 C1.71882353,9.41176471 1.17647059,8.88352941 1.17647059,8.23529412 L1.17647059,2.35294118 C1.17647059,1.70352941 1.71882353,1.17647059 2.35294118,1.17647059 L21.1764706,1.17647059 C21.8105882,1.17647059 22.3529412,1.70352941 22.3529412,2.35294118 L22.3529412,8.23529412 C22.3529412,8.88352941 21.8105882,9.41176471 21.1764706,9.41176471 L2.35294118,9.41176471 L2.35294118,9.41176471 Z" id="Fill-1" stroke="#88BACA" fill="#88BACA" sketch:type="MSShapeGroup" mask="url(#mask-2)"></path>
                        </g>
                    </g>
                </g>
            </g>
        </g>
    </g>
</svg>