<?xml version="1.0" encoding="UTF-8" standalone="no"?>
<svg width="713px" height="477px" viewBox="0 0 713 477" version="1.1" xmlns="http://www.w3.org/2000/svg" xmlns:xlink="http://www.w3.org/1999/xlink" xmlns:sketch="http://www.bohemiancoding.com/sketch/ns">
    <!-- Generator: Sketch 3.0 (7573) - http://www.bohemiancoding.com/sketch -->
    <title>laptop</title>
    <description>Created with Sketch.</description>
    <defs></defs>
    <g id="desktop" stroke="none" stroke-width="1" fill="none" fill-rule="evenodd" sketch:type="MSPage">
        <g id="overview" sketch:type="MSArtboardGroup" transform="translate(-668.000000, -379.000000)">
            <g sketch:type="MSLayerGroup" id="landing">
                <g transform="translate(204.000000, 164.000000)" sketch:type="MSShapeGroup">
                    <g id="laptop" transform="translate(464.000000, 216.000000)">
                        <path d="M73.933,41.838 L637.933,41.838 L637.933,386.839 L73.933,386.839 L73.933,41.838 Z M71.933,388.839 L639.933,388.839 L639.933,39.838 L71.933,39.838 L71.933,388.839 Z" id="Fill-1" fill="#828C97"></path>
                        <path d="M645.933,1.838 C653.653,1.838 659.933,8.119 659.933,15.838 L659.933,408.839 L52.461,408.839 L52.461,15.838 C52.461,8.119 58.742,1.838 66.461,1.838 L645.933,1.838 M645.933,-0.162 L66.461,-0.162 C57.625,-0.162 50.461,7.001 50.461,15.838 L50.461,410.839 L661.933,410.839 L661.933,15.838 C661.933,7.001 654.77,-0.162 645.933,-0.162" id="Fill-2" fill="#828C97"></path>
                        <path d="M355.934,15.528 C359.135,15.528 361.739,18.132 361.739,21.333 C361.739,24.534 359.135,27.139 355.934,27.139 C352.732,27.139 350.128,24.534 350.128,21.333 C350.128,18.132 352.732,15.528 355.934,15.528 M355.934,13.528 C351.623,13.528 348.128,17.022 348.128,21.333 C348.128,25.644 351.623,29.139 355.934,29.139 C360.244,29.139 363.739,25.644 363.739,21.333 C363.739,17.022 360.244,13.528 355.934,13.528" id="Fill-3" fill="#828C97"></path>
                        <path d="M661.344,410.833 L710.267,442.423 L710.267,466.992 C710.261,467.692 710.045,473.833 704.311,473.833 L8.104,473.833 L8.062,473.835 C6.67,473.835 2.128,473.342 2.128,467 L2.128,441.768 L51.041,410.833 L661.344,410.833 M661.933,408.833 L50.461,408.833 L0.128,440.667 L0.128,467 C0.128,475.547 7.119,475.835 8.062,475.835 C8.13,475.835 8.167,475.833 8.167,475.833 L704.311,475.833 C712.267,475.833 712.267,467 712.267,467 L712.267,441.333 L661.933,408.833" id="Fill-4" fill="#828C97"></path>
                        <path d="M1.188,442.334 L316.267,442.334 C316.267,442.334 315.142,455.001 326.6,455.001 L355.739,455.001 L384.933,455.001 C384.933,455.001 395.933,456.001 395.933,443.001 L711.25,443.001" id="Stroke-5" stroke="#828C97" stroke-width="2"></path>
                    </g>
                </g>
            </g>
        </g>
    </g>
</svg>