<?xml version="1.0" encoding="UTF-8" standalone="no"?>
<svg width="175px" height="19px" viewBox="0 0 175 19" version="1.1" xmlns="http://www.w3.org/2000/svg" xmlns:xlink="http://www.w3.org/1999/xlink" xmlns:sketch="http://www.bohemiancoding.com/sketch/ns">
    <!-- Generator: Sketch 3.0 (7573) - http://www.bohemiancoding.com/sketch -->
    <title>apple consultants network</title>
    <description>Created with Sketch.</description>
    <defs></defs>
    <g id="desktop" stroke="none" stroke-width="1" fill="none" fill-rule="evenodd" sketch:type="MSPage">
        <g id="overview" sketch:type="MSArtboardGroup" transform="translate(-245.000000, -10.000000)" fill="#FFFFFF">
            <g sketch:type="MSLayerGroup" id="top">
                <g transform="translate(204.000000, 0.000000)" sketch:type="MSShapeGroup">
                    <g id="header">
                        <g id="-apple-consultants-network" transform="translate(41.000000, 11.000000)">
                            <path d="M14.2859756,12.539625 C14.2646341,12.6023125 13.9210366,13.7838125 13.0823171,15.0025 C12.3577744,16.058625 11.6044207,17.1094375 10.4199695,17.13175 C9.25472561,17.1540625 8.88018293,16.44325 7.55060976,16.44325 C6.21783537,16.44325 5.80167683,17.1094375 4.70045732,17.1540625 C3.55655488,17.1965625 2.6847561,16.0129375 1.95381098,14.962125 C0.459908537,12.811625 -0.67972561,8.884625 0.852591463,6.236875 C1.61234756,4.9204375 2.97393293,4.0874375 4.4507622,4.0661875 C5.57439024,4.0449375 6.6339939,4.817375 7.32118902,4.817375 C8.00731707,4.817375 9.29527439,3.8876875 10.6504573,4.0236875 C11.2160061,4.048125 12.8080793,4.2510625 13.8303354,5.74175 C13.7492378,5.79275 11.9309451,6.84675 11.9512195,9.0365625 C11.9746951,11.65775 14.2603659,12.5300625 14.2859756,12.539625 L14.2859756,12.539625 Z M9.76158537,2.603125 C10.3708841,1.87 10.7795732,0.852125 10.6675305,-0.1615 C9.79253049,-0.129625 8.73292683,0.418625 8.1054878,1.149625 C7.54314024,1.79775 7.04908537,2.83475 7.18353659,3.8281875 C8.15777439,3.903625 9.1554878,3.334125 9.76158537,2.603125 L9.76158537,2.603125 Z" id="Fill-1"></path>
                            <path d="M33.0483232,5.1255 L32.6321646,6.6268125 C31.9844512,6.32825 31.2460366,6.1784375 30.4137195,6.1784375 C29.1545732,6.1784375 28.1547256,6.55775 27.4152439,7.3174375 C26.629878,8.111125 26.236128,9.2214375 26.236128,10.6473125 C26.236128,12.016875 26.6,13.09 27.328811,13.8666875 C28.0565549,14.643375 29.0670732,15.0311875 30.3614329,15.0311875 C31.2737805,15.0311875 32.0420732,14.88775 32.667378,14.5998125 L32.9960366,16.084125 C32.3035061,16.41775 31.3153963,16.5845625 30.0327744,16.5845625 C28.276372,16.5845625 26.8838415,16.0724375 25.85625,15.04925 C24.792378,13.991 24.2609756,12.552375 24.2609756,10.7344375 C24.2609756,8.8708125 24.8382622,7.3748125 25.9939024,6.2475 C27.1143293,5.165875 28.5644817,4.6250625 30.3443598,4.6250625 C31.5234756,4.6250625 32.4240854,4.791875 33.0483232,5.1255" id="Fill-2"></path>
                            <path d="M42.1301829,12.1836875 C42.1301829,13.474625 41.7609756,14.535 41.0214939,15.3648125 C40.2467988,16.2169375 39.2181402,16.6440625 37.9365854,16.6440625 C36.6998476,16.6440625 35.714939,16.235 34.9807927,15.4158125 C34.2466463,14.5976875 33.8806402,13.566 33.8806402,12.32075 C33.8806402,11.0191875 34.2583841,9.9524375 35.0160061,9.122625 C35.772561,8.2928125 36.7916159,7.877375 38.0742378,7.877375 C39.3109756,7.877375 40.3044207,8.2875 41.0556402,9.105625 C41.7716463,9.900375 42.1301829,10.92675 42.1301829,12.1836875 L42.1301829,12.1836875 Z M40.1891768,12.2261875 C40.1891768,11.4569375 40.0216463,10.797125 39.6865854,10.24675 C39.2939024,9.5805625 38.732622,9.248 38.004878,9.248 C37.2547256,9.248 36.6817073,9.5805625 36.2890244,10.24675 C35.9539634,10.797125 35.7864329,11.468625 35.7864329,12.26125 C35.7864329,13.0305 35.9539634,13.6903125 36.2890244,14.2406875 C36.6934451,14.906875 37.260061,15.2394375 37.9878049,15.2394375 C38.703811,15.2394375 39.2640244,14.9015625 39.6684451,14.2236875 C40.0152439,13.661625 40.1891768,12.9954375 40.1891768,12.2261875 L40.1891768,12.2261875 Z" id="Fill-3"></path>
                            <path d="M50.9591463,16.4379375 L49.101372,16.4379375 L49.101372,11.6141875 C49.101372,10.12775 48.533689,9.384 47.4004573,9.384 C46.8445122,9.384 46.3931402,9.5890625 46.0463415,9.998125 C45.6984756,10.4071875 45.5256098,10.8885 45.5256098,11.4420625 L45.5256098,16.4379375 L43.6678354,16.4379375 L43.6678354,10.448625 C43.6678354,9.7123125 43.6454268,8.91225 43.5995427,8.0495 L45.2407012,8.0495 L45.3271341,9.34575 L45.3783537,9.34575 C45.5971037,8.9430625 45.9193598,8.6094375 46.346189,8.3438125 C46.8519817,8.0335625 47.4175305,7.877375 48.0396341,7.877375 C48.8217988,7.877375 49.4727134,8.1313125 49.991311,8.6370625 C50.6358232,9.258625 50.9591463,10.185125 50.9591463,11.4165625 L50.9591463,16.4379375" id="Fill-4"></path>
                            <path d="M58.1341463,14.0175625 C58.1341463,14.800625 57.8471037,15.4285625 57.2719512,15.901375 C56.6967988,16.373125 55.9028963,16.6100625 54.892378,16.6100625 C53.9373476,16.6100625 53.126372,16.419875 52.4605183,16.0405625 L52.8574695,14.660375 C53.5019817,15.047125 54.1870427,15.2394375 54.9126524,15.2394375 C55.8676829,15.2394375 56.3457317,14.8888125 56.3457317,14.1875625 C56.3457317,13.8773125 56.2422256,13.6223125 56.0362805,13.4204375 C55.8303354,13.219625 55.4632622,13.022 54.936128,12.8265 C53.4454268,12.2750625 52.7006098,11.4696875 52.7006098,10.4125 C52.7006098,9.687875 52.9769817,9.084375 53.5297256,8.602 C54.0824695,8.119625 54.8144817,7.877375 55.7246951,7.877375 C56.554878,7.877375 57.2623476,8.04525 57.8503049,8.378875 L57.4522866,9.7080625 C56.9091463,9.377625 56.3371951,9.2129375 55.7364329,9.2129375 C55.34375,9.2129375 55.0375,9.305375 54.8176829,9.49025 C54.5989329,9.6740625 54.4890244,9.9099375 54.4890244,10.197875 C54.4890244,10.486875 54.6032012,10.72275 54.832622,10.9065625 C55.0278963,11.07975 55.4056402,11.2699375 55.9679878,11.477125 C57.4117378,12.0306875 58.1341463,12.8775 58.1341463,14.0175625" id="Fill-5"></path>
                            <path d="M66.9801829,16.4379375 L65.333689,16.4379375 L65.2291159,15.1608125 L65.1949695,15.1608125 C64.6059451,16.15 63.7160061,16.6440625 62.5251524,16.6440625 C61.6939024,16.6440625 61.0291159,16.3848125 60.5329268,15.86525 C59.9428354,15.232 59.6483232,14.2746875 59.6483232,12.994375 L59.6483232,8.0495 L61.5060976,8.0495 L61.5060976,12.682 C61.5060976,14.2959375 62.0641768,15.1034375 63.1803354,15.1034375 C64.0179878,15.1034375 64.5995427,14.6996875 64.9260671,13.8921875 C65.0071646,13.685 65.0477134,13.449125 65.0477134,13.1835 L65.0477134,8.0495 L66.9044207,8.0495 L66.9044207,14.0218125 C66.9044207,14.8155 66.9300305,15.620875 66.9801829,16.4379375" id="Fill-6"></path>
                            <path d="M68.9905488,4.213875 L70.8472561,4.213875 L70.8472561,16.4379375 L68.9905488,16.4379375 L68.9905488,4.213875 Z" id="Fill-7"></path>
                            <path d="M77.4897866,9.4530625 L75.453811,9.4530625 L75.453811,13.5181875 C75.453811,14.552 75.8134146,15.068375 76.5315549,15.068375 C76.8612805,15.068375 77.1344512,15.0418125 77.3521341,14.9886875 L77.4033537,16.402875 C77.0341463,16.541 76.5496951,16.6100625 75.95,16.6100625 C75.2115854,16.6100625 74.6342988,16.385875 74.2202744,15.9364375 C73.8041159,15.4880625 73.5971037,14.7358125 73.5971037,13.678625 L73.5971037,9.4530625 L72.3592988,9.4530625 L72.3592988,8.0495 L73.5971037,8.0495 L73.5971037,6.5120625 L75.453811,5.960625 L75.453811,8.0495 L77.4897866,8.0495 L77.4897866,9.4530625" id="Fill-8"></path>
                            <path d="M85.5643293,16.4379375 L83.882622,16.4379375 L83.7439024,15.472125 L83.6916159,15.472125 C83.1143293,16.2530625 82.29375,16.6440625 81.2309451,16.6440625 C80.4338415,16.6440625 79.7925305,16.390125 79.3070122,15.8833125 C78.867378,15.42325 78.648628,14.8526875 78.648628,14.1726875 C78.648628,13.147375 79.0786585,12.3643125 79.9387195,11.8224375 C80.7977134,11.281625 82.0077744,11.016 83.5657012,11.0276875 L83.5657012,10.8725625 C83.5657012,9.7665 82.9830793,9.2129375 81.8178354,9.2129375 C80.9865854,9.2129375 80.2535061,9.4190625 79.6185976,9.828125 L79.2376524,8.6030625 C80.0208841,8.119625 80.9823171,7.877375 82.1230183,7.877375 C84.3233232,7.877375 85.4234756,9.0344375 85.4234756,11.3464375 L85.4234756,14.4361875 C85.4234756,15.276625 85.4693598,15.943875 85.5643293,16.4379375 L85.5643293,16.4379375 Z M83.6233232,13.559625 L83.6233232,12.26125 C81.5446646,12.2261875 80.5053354,12.7925 80.5053354,13.9580625 C80.5053354,14.396875 80.6259146,14.7251875 80.8692073,14.945125 C81.1114329,15.164 81.4166159,15.2745 81.7868902,15.2745 C82.2030488,15.2745 82.586128,15.144875 82.9393293,14.8845625 C83.2903963,14.62425 83.5070122,14.29275 83.5881098,13.889 C83.6115854,13.7965625 83.6233232,13.687125 83.6233232,13.559625 L83.6233232,13.559625 Z" id="Fill-9"></path>
                            <path d="M94.7379573,16.4379375 L92.88125,16.4379375 L92.88125,11.6141875 C92.88125,10.12775 92.3135671,9.384 91.1803354,9.384 C90.6243902,9.384 90.1730183,9.5890625 89.8251524,9.998125 C89.4783537,10.4071875 89.3044207,10.8885 89.3044207,11.4420625 L89.3044207,16.4379375 L87.4477134,16.4379375 L87.4477134,10.448625 C87.4477134,9.7123125 87.4253049,8.91225 87.3794207,8.0495 L89.0195122,8.0495 L89.1070122,9.34575 L89.1582317,9.34575 C89.3769817,8.9430625 89.6992378,8.6094375 90.1260671,8.3438125 C90.6318598,8.0335625 91.1963415,7.877375 91.8195122,7.877375 C92.6016768,7.877375 93.2525915,8.1313125 93.771189,8.6370625 C94.4157012,9.258625 94.7379573,10.185125 94.7379573,11.4165625 L94.7379573,16.4379375" id="Fill-10"></path>
                            <path d="M100.973933,9.4530625 L98.9390244,9.4530625 L98.9390244,13.5181875 C98.9390244,14.552 99.297561,15.068375 100.015701,15.068375 C100.346494,15.068375 100.619665,15.0418125 100.83628,14.9886875 L100.8875,16.402875 C100.518293,16.541 100.034909,16.6100625 99.4352134,16.6100625 C98.6967988,16.6100625 98.1195122,16.385875 97.7044207,15.9364375 C97.2893293,15.4880625 97.0823171,14.7358125 97.0823171,13.678625 L97.0823171,9.4530625 L95.8434451,9.4530625 L95.8434451,8.0495 L97.0823171,8.0495 L97.0823171,6.5120625 L98.9390244,5.960625 L98.9390244,8.0495 L100.973933,8.0495 L100.973933,9.4530625" id="Fill-11"></path>
                            <path d="M107.875762,14.0175625 C107.875762,14.800625 107.58872,15.4285625 107.013567,15.901375 C106.438415,16.373125 105.644512,16.6100625 104.633994,16.6100625 C103.678963,16.6100625 102.869055,16.419875 102.202134,16.0405625 L102.599085,14.660375 C103.243598,15.047125 103.928659,15.2394375 104.654268,15.2394375 C105.609299,15.2394375 106.087348,14.8888125 106.087348,14.1875625 C106.087348,13.8773125 105.984909,13.6223125 105.777896,13.4204375 C105.571951,13.219625 105.204878,13.022 104.677744,12.8265 C103.187043,12.2750625 102.442226,11.4696875 102.442226,10.4125 C102.442226,9.687875 102.718598,9.084375 103.271341,8.602 C103.824085,8.119625 104.556098,7.877375 105.466311,7.877375 C106.296494,7.877375 107.003963,8.04525 107.591921,8.378875 L107.193902,9.7080625 C106.650762,9.377625 106.078811,9.2129375 105.478049,9.2129375 C105.085366,9.2129375 104.779116,9.305375 104.559299,9.49025 C104.340549,9.6740625 104.23064,9.9099375 104.23064,10.197875 C104.23064,10.486875 104.344817,10.72275 104.574238,10.9065625 C104.769512,11.07975 105.147256,11.2699375 105.709604,11.477125 C107.153354,12.0306875 107.875762,12.8775 107.875762,14.0175625" id="Fill-12"></path>
                            <path d="M122.750762,16.4379375 L120.822561,16.4379375 L117.59253,11.0298125 C116.723933,9.5678125 116.029268,8.242875 115.50747,7.0560625 L115.455183,7.0730625 C115.526677,8.3756875 115.562957,10.0225625 115.562957,12.01475 L115.562957,16.4379375 L113.843902,16.4379375 L113.843902,4.796125 L115.923628,4.796125 L119.147256,10.125625 C119.898476,11.36875 120.563262,12.650125 121.140549,13.9729375 L121.175762,13.9559375 C121.05625,12.6448125 120.996494,11.0340625 120.996494,9.1258125 L120.996494,4.796125 L122.750762,4.796125 L122.750762,16.4379375" id="Fill-13"></path>
                            <path d="M131.917988,11.8500625 C131.917988,12.1836875 131.894512,12.4641875 131.847561,12.692625 L126.209146,12.692625 C126.232622,13.521375 126.504726,14.154625 127.026524,14.5913125 C127.501372,14.983375 128.114939,15.1778125 128.868293,15.1778125 C129.702744,15.1778125 130.461433,15.0460625 131.145427,14.7815 L131.441006,16.0873125 C130.642835,16.4358125 129.701677,16.6100625 128.615396,16.6100625 C127.309299,16.6100625 126.283841,16.2265 125.539024,15.4615 C124.79314,14.6965 124.420732,13.670125 124.420732,12.3813125 C124.420732,11.115875 124.768598,10.064 125.462195,9.2235625 C126.191006,8.3268125 127.17378,7.877375 128.412652,7.877375 C129.626982,7.877375 130.546799,8.3246875 131.171037,9.2193125 C131.66936,9.930125 131.917988,10.8066875 131.917988,11.8500625 L131.917988,11.8500625 Z M130.129573,11.3645 C130.141311,10.812 130.019665,10.3349375 129.763567,9.93225 C129.43811,9.4148125 128.93872,9.1555625 128.265396,9.1555625 C127.649695,9.1555625 127.150305,9.4084375 126.767226,9.91525 C126.453506,10.3179375 126.266768,10.8003125 126.209146,11.3645 L130.129573,11.3645 L130.129573,11.3645 Z" id="Fill-14"></path>
                            <path d="M137.92561,9.4530625 L135.889634,9.4530625 L135.889634,13.5181875 C135.889634,14.552 136.248171,15.068375 136.966311,15.068375 C137.297104,15.068375 137.570274,15.0418125 137.787957,14.9886875 L137.83811,16.402875 C137.46997,16.541 136.985518,16.6100625 136.385823,16.6100625 C135.647409,16.6100625 135.070122,16.385875 134.65503,15.9364375 C134.239939,15.4880625 134.032927,14.7358125 134.032927,13.678625 L134.032927,9.4530625 L132.795122,9.4530625 L132.795122,8.0495 L134.032927,8.0495 L134.032927,6.5120625 L135.889634,5.960625 L135.889634,8.0495 L137.92561,8.0495 L137.92561,9.4530625" id="Fill-15"></path>
                            <path d="M151.069817,8.0495 L148.434146,16.4379375 L146.717226,16.4379375 L145.624543,12.7871875 C145.347104,11.8755625 145.120884,10.96925 144.948018,10.0693125 L144.912805,10.0693125 C144.75061,10.992625 144.525457,11.8989375 144.237348,12.7871875 L143.075305,16.4379375 L141.341311,16.4379375 L138.861433,8.0495 L140.786433,8.0495 L141.740396,12.0349375 C141.970884,12.9784375 142.16189,13.8751875 142.312348,14.72625 L142.347561,14.72625 C142.485213,14.025 142.716768,13.1335625 143.041159,12.0519375 L144.237348,8.0495 L145.763262,8.0495 L146.908232,11.965875 C147.185671,12.92 147.409756,13.8411875 147.583689,14.72625 L147.635976,14.72625 C147.762957,13.8635 147.953963,12.943375 148.207927,11.965875 L149.23125,8.0495 L151.069817,8.0495" id="Fill-16"></path>
                            <path d="M159.847561,12.1836875 C159.847561,13.474625 159.477287,14.535 158.737805,15.3648125 C157.96311,16.2169375 156.934451,16.6440625 155.652896,16.6440625 C154.416159,16.6440625 153.43125,16.235 152.697104,15.4158125 C151.962957,14.5976875 151.596951,13.566 151.596951,12.32075 C151.596951,11.0191875 151.975762,9.9524375 152.732317,9.122625 C153.488872,8.2928125 154.508994,7.877375 155.791616,7.877375 C157.027287,7.877375 158.021799,8.2875 158.773018,9.105625 C159.489024,9.900375 159.847561,10.92675 159.847561,12.1836875 L159.847561,12.1836875 Z M157.905488,12.2261875 C157.905488,11.4569375 157.737957,10.797125 157.403963,10.24675 C157.010213,9.5805625 156.45,9.248 155.722256,9.248 C154.971037,9.248 154.399085,9.5805625 154.006402,10.24675 C153.670274,10.797125 153.503811,11.468625 153.503811,12.26125 C153.503811,13.0305 153.670274,13.6903125 154.006402,14.2406875 C154.409756,14.906875 154.976372,15.2394375 155.705183,15.2394375 C156.421189,15.2394375 156.981402,14.9015625 157.385823,14.2236875 C157.732622,13.661625 157.905488,12.9954375 157.905488,12.2261875 L157.905488,12.2261875 Z" id="Fill-17"></path>
                            <path d="M165.787957,9.6910625 C165.602287,9.6464375 165.405945,9.624125 165.198933,9.624125 C164.540549,9.624125 164.032622,9.87275 163.675152,10.367875 C163.363567,10.805625 163.207774,11.3591875 163.207774,12.0285625 L163.207774,16.4379375 L161.35,16.4379375 L161.35,10.6898125 C161.35,9.724 161.327591,8.8431875 161.281707,8.0495 L162.911128,8.0495 L162.980488,9.656 L163.031707,9.656 C163.228049,9.1035 163.539634,8.6604375 163.96753,8.3268125 C164.383689,8.02825 164.833994,7.877375 165.319512,7.877375 C165.492378,7.877375 165.649238,7.890125 165.787957,7.9124375 L165.787957,9.6910625" id="Fill-18"></path>
                            <path d="M174.609451,16.4379375 L172.316311,16.4379375 L169.760671,12.6065625 L169.048933,13.470375 L169.048933,16.4379375 L167.191159,16.4379375 L167.191159,4.213875 L169.048933,4.213875 L169.048933,11.795875 L169.083079,11.795875 C169.314634,11.42825 169.540854,11.10525 169.760671,10.829 L171.934299,8.0495 L174.17622,8.0495 L171.074238,11.5015625 L174.609451,16.4379375" id="Fill-19"></path>
                        </g>
                    </g>
                </g>
            </g>
        </g>
    </g>
</svg>