<?xml version="1.0" encoding="UTF-8" standalone="no"?>
<svg width="32px" height="32px" viewBox="0 0 32 32" version="1.1" xmlns="http://www.w3.org/2000/svg" xmlns:xlink="http://www.w3.org/1999/xlink" xmlns:sketch="http://www.bohemiancoding.com/sketch/ns">
    <!-- Generator: Sketch 3.0 (7573) - http://www.bohemiancoding.com/sketch -->
    <title>fb</title>
    <description>Created with Sketch.</description>
    <defs>
        <path id="path-1" d="M0.0384,0 L32,0 L32,32 L0.0384,32 L0.0384,0 Z"></path>
    </defs>
    <g id="desktop" stroke="none" stroke-width="1" fill="none" fill-rule="evenodd" sketch:type="MSPage">
        <g id="overview" sketch:type="MSArtboardGroup" transform="translate(-1696.000000, -12431.000000)">
            <g sketch:type="MSLayerGroup" id="footer">
                <g transform="translate(204.000000, 12417.000000)">
                    <g id="fb" transform="translate(1492.000000, 14.000000)">
                        <mask id="mask-2" sketch:name="Clip 2" fill="white">
                            <use xlink:href="#path-1"></use>
                        </mask>
                        <g id="Clip-2"></g>
                        <path d="M16,0 C7.16352,0 0,7.16416 0,16 C0,24.83648 7.16352,32 16,32 C24.83648,32 32,24.83648 32,16 C32,7.16416 24.83648,0 16,0 L16,0 Z M21.76,8.74368 L19.52384,8.74368 C18.63872,8.74368 17.92,9.45984 17.92,10.3424 L17.92,11.52 L21.76,11.52 L21.76,15.4272 L17.92,15.4272 L17.92,26.88 L12.8,26.88 L12.8,15.4272 L10.24,15.4272 L10.24,11.52 L12.8,11.52 L12.8,9.39008 C12.8,7.03232 14.71744,5.12 17.0816,5.12 L21.76,5.12 L21.76,8.74368 L21.76,8.74368 Z" id="Fill-1" fill="#FFFFFF" sketch:type="MSShapeGroup" mask="url(#mask-2)"></path>
                    </g>
                </g>
            </g>
        </g>
    </g>
</svg>