<?xml version="1.0" encoding="UTF-8" standalone="no"?>
<svg width="102px" height="102px" viewBox="0 0 102 102" version="1.1" xmlns="http://www.w3.org/2000/svg" xmlns:xlink="http://www.w3.org/1999/xlink" xmlns:sketch="http://www.bohemiancoding.com/sketch/ns">
    <!-- Generator: Sketch 3.0 (7573) - http://www.bohemiancoding.com/sketch -->
    <title>icn_support</title>
    <description>Created with Sketch.</description>
    <defs>
        <path id="path-1" d="M0,0 L60,0 L60,59.94 L0,59.94 L0,0 Z"></path>
    </defs>
    <g id="desktop" stroke="none" stroke-width="1" fill="none" fill-rule="evenodd" sketch:type="MSPage">
        <g id="overview" sketch:type="MSArtboardGroup" transform="translate(-973.000000, -1917.000000)">
            <g sketch:type="MSLayerGroup" id="services">
                <g transform="translate(364.000000, 1482.000000)">
                    <g id="support" transform="translate(436.000000, 270.000000)">
                        <g id="icn_support" transform="translate(173.000000, 165.000000)">
                            <circle id="Oval-6-copy" stroke="#8BC640" stroke-width="2" sketch:type="MSShapeGroup" cx="51" cy="51" r="51"></circle>
                            <g id="wrench" transform="translate(21.000000, 21.000000)">
                                <g id="Group-3">
                                    <mask id="mask-2" sketch:name="Clip 2" fill="white">
                                        <use xlink:href="#path-1"></use>
                                    </mask>
                                    <g id="Clip-2"></g>
                                    <path d="M59.959,12.706 C59.897,12.454 59.771,12.214 59.574,12.016 C59.284,11.727 58.904,11.581 58.525,11.581 C58.146,11.581 57.766,11.727 57.476,12.016 C57.278,12.214 51.178,18.316 51.178,18.316 C50.716,18.778 50.067,18.997 49.313,18.997 C47.702,18.997 45.608,17.994 43.83,16.216 C41.221,13.606 40.281,10.316 41.731,8.867 C41.731,8.867 47.831,2.764 48.028,2.567 C48.609,1.987 48.609,1.047 48.028,0.467 C47.831,0.27 47.592,0.145 47.339,0.082 C46.75,0.027 46.158,0 45.566,0 C40.969,0 36.364,1.636 33.31,4.691 C30.553,7.45 29.994,11.204 29.994,14.204 C29.994,14.202 29.994,14.204 29.994,14.204 C29.994,17.204 28.889,21.495 25.765,24.752 L25.773,24.762 L2.01,48.526 C-0.615,51.15 -0.615,55.406 2.01,58.031 C3.322,59.344 5.043,60 6.763,60 C8.482,60 10.203,59.344 11.516,58.031 L35.279,34.267 L35.289,34.276 C38.202,31.483 41.723,29.984 44.777,29.984 C45.138,29.984 45.96,30 47.841,30 C50.515,30 53.094,28.998 55.352,26.74 C58.799,23.292 59.959,17.492 59.959,12.706 L59.959,12.706 Z M30.432,15.071 C30.404,14.96 30.38,14.851 30.356,14.74 C30.38,14.851 30.404,14.96 30.432,15.071 L30.432,15.071 Z M30.714,16.039 C30.69,15.966 30.663,15.893 30.64,15.82 C30.663,15.893 30.69,15.966 30.714,16.039 L30.714,16.039 Z M35.281,32 L10.385,56.9 C9.417,57.867 8.131,58.4 6.763,58.4 C5.394,58.4 4.108,57.867 3.141,56.9 C2.174,55.933 1.641,54.647 1.641,53.278 C1.641,51.911 2.174,50.624 3.141,49.657 L27.969,24.811 C29.758,22.636 30.888,20.142 31.386,17.745 C32.407,19.944 33.971,22.102 35.959,24.09 C38.107,26.24 42.472,28.745 42.29,28.66 C39.894,29.159 37.437,30.235 35.281,32 L35.281,32 Z M54.22,25.608 C52.368,27.461 50.223,28.4 47.841,28.4 C44.416,28.4 40.598,26.468 37.091,22.959 C32.31,18.177 29.103,11.164 34.442,5.822 C37.085,3.178 41.243,1.6 45.566,1.6 C45.943,1.6 46.321,1.612 46.696,1.636 L40.601,7.735 C39.486,8.849 39.165,10.603 39.72,12.546 C40.19,14.191 41.247,15.896 42.699,17.348 C44.734,19.382 47.207,20.597 49.313,20.597 C50.522,20.597 51.558,20.2 52.31,19.447 C52.31,19.447 57.318,14.437 58.405,13.35 C58.708,18.042 57.127,22.701 54.22,25.608 L54.22,25.608 Z" id="Fill-1" stroke="#8BC640" fill="#8BC640" sketch:type="MSShapeGroup" mask="url(#mask-2)"></path>
                                </g>
                                <path d="M9.953,52.204 C9.953,53.309 9.058,54.204 7.953,54.204 C6.849,54.204 5.953,53.309 5.953,52.204 C5.953,51.099 6.849,50.204 7.953,50.204 C9.058,50.204 9.953,51.099 9.953,52.204" id="Fill-4" fill="#8BC640" sketch:type="MSShapeGroup"></path>
                            </g>
                        </g>
                    </g>
                </g>
            </g>
        </g>
    </g>
</svg>