<?xml version="1.0" encoding="UTF-8" standalone="no"?>
<svg width="60px" height="60px" viewBox="0 0 60 60" version="1.1" xmlns="http://www.w3.org/2000/svg" xmlns:xlink="http://www.w3.org/1999/xlink" xmlns:sketch="http://www.bohemiancoding.com/sketch/ns">
    <!-- Generator: Sketch 3.0 (7573) - http://www.bohemiancoding.com/sketch -->
    <title>icn_support_small</title>
    <description>Created with Sketch.</description>
    <defs>
        <path id="path-1" d="M0,0 L35.2941176,0 L35.2941176,35.2588235 L0,35.2588235 L0,0 Z"></path>
    </defs>
    <g id="desktop" stroke="none" stroke-width="1" fill="none" fill-rule="evenodd" sketch:type="MSPage">
        <g id="overview" sketch:type="MSArtboardGroup" transform="translate(-991.000000, -2494.000000)">
            <g sketch:type="MSLayerGroup" id="support">
                <g transform="translate(352.000000, 2494.000000)">
                    <g id="icn_support_small" transform="translate(639.000000, 0.000000)">
                        <circle id="Oval-6-copy" stroke="#8BC640" stroke-width="2" sketch:type="MSShapeGroup" cx="30" cy="30" r="30"></circle>
                        <g id="wrench" transform="translate(12.352941, 12.352941)">
                            <g id="Group-3">
                                <mask id="mask-2" sketch:name="Clip 2" fill="white">
                                    <use xlink:href="#path-1"></use>
                                </mask>
                                <g id="Clip-2"></g>
                                <path d="M35.27,7.47411765 C35.2335294,7.32588235 35.1594118,7.18470588 35.0435294,7.06823529 C34.8729412,6.89823529 34.6494118,6.81235294 34.4264706,6.81235294 C34.2035294,6.81235294 33.98,6.89823529 33.8094118,7.06823529 C33.6929412,7.18470588 30.1047059,10.7741176 30.1047059,10.7741176 C29.8329412,11.0458824 29.4511765,11.1747059 29.0076471,11.1747059 C28.06,11.1747059 26.8282353,10.5847059 25.7823529,9.53882353 C24.2476471,8.00352941 23.6947059,6.06823529 24.5476471,5.21588235 C24.5476471,5.21588235 28.1358824,1.62588235 28.2517647,1.51 C28.5935294,1.16882353 28.5935294,0.615882353 28.2517647,0.274705882 C28.1358824,0.158823529 27.9952941,0.0852941176 27.8464706,0.0482352941 C27.5,0.0158823529 27.1517647,0 26.8035294,0 C24.0994118,0 21.3905882,0.962352941 19.5941176,2.75941176 C17.9723529,4.38235294 17.6435294,6.59058824 17.6435294,8.35529412 C17.6435294,8.35411765 17.6435294,8.35529412 17.6435294,8.35529412 C17.6435294,10.12 16.9935294,12.6441176 15.1558824,14.56 L15.1605882,14.5658824 L1.18235294,28.5447059 C-0.361764706,30.0882353 -0.361764706,32.5917647 1.18235294,34.1358824 C1.95411765,34.9082353 2.96647059,35.2941176 3.97823529,35.2941176 C4.98941176,35.2941176 6.00176471,34.9082353 6.77411765,34.1358824 L20.7523529,20.1570588 L20.7582353,20.1623529 C22.4717647,18.5194118 24.5429412,17.6376471 26.3394118,17.6376471 C26.5517647,17.6376471 27.0352941,17.6470588 28.1417647,17.6470588 C29.7147059,17.6470588 31.2317647,17.0576471 32.56,15.7294118 C34.5876471,13.7011765 35.27,10.2894118 35.27,7.47411765 L35.27,7.47411765 Z M17.9011765,8.86529412 C17.8847059,8.8 17.8705882,8.73588235 17.8564706,8.67058824 C17.8705882,8.73588235 17.8847059,8.8 17.9011765,8.86529412 L17.9011765,8.86529412 Z M18.0670588,9.43470588 C18.0529412,9.39176471 18.0370588,9.34882353 18.0235294,9.30588235 C18.0370588,9.34882353 18.0529412,9.39176471 18.0670588,9.43470588 L18.0670588,9.43470588 Z M20.7535294,18.8235294 L6.10882353,33.4705882 C5.53941176,34.0394118 4.78294118,34.3529412 3.97823529,34.3529412 C3.17294118,34.3529412 2.41647059,34.0394118 1.84764706,33.4705882 C1.27882353,32.9017647 0.965294118,32.1452941 0.965294118,31.34 C0.965294118,30.5358824 1.27882353,29.7788235 1.84764706,29.21 L16.4523529,14.5947059 C17.5047059,13.3152941 18.1694118,11.8482353 18.4623529,10.4382353 C19.0629412,11.7317647 19.9829412,13.0011765 21.1523529,14.1705882 C22.4158824,15.4352941 24.9835294,16.9088235 24.8764706,16.8588235 C23.4670588,17.1523529 22.0217647,17.7852941 20.7535294,18.8235294 L20.7535294,18.8235294 Z M31.8941176,15.0635294 C30.8047059,16.1535294 29.5429412,16.7058824 28.1417647,16.7058824 C26.1270588,16.7058824 23.8811765,15.5694118 21.8182353,13.5052941 C19.0058824,10.6923529 17.1194118,6.56705882 20.26,3.42470588 C21.8147059,1.86941176 24.2605882,0.941176471 26.8035294,0.941176471 C27.0252941,0.941176471 27.2476471,0.948235294 27.4682353,0.962352941 L23.8829412,4.55 C23.2270588,5.20529412 23.0382353,6.23705882 23.3647059,7.38 C23.6411765,8.34764706 24.2629412,9.35058824 25.1170588,10.2047059 C26.3141176,11.4011765 27.7688235,12.1158824 29.0076471,12.1158824 C29.7188235,12.1158824 30.3282353,11.8823529 30.7705882,11.4394118 C30.7705882,11.4394118 33.7164706,8.49235294 34.3558824,7.85294118 C34.5341176,10.6129412 33.6041176,13.3535294 31.8941176,15.0635294 L31.8941176,15.0635294 Z" id="Fill-1" stroke="#8BC640" fill="#8BC640" sketch:type="MSShapeGroup" mask="url(#mask-2)"></path>
                            </g>
                            <path d="M5.85470588,30.7082353 C5.85470588,31.3582353 5.32823529,31.8847059 4.67823529,31.8847059 C4.02882353,31.8847059 3.50176471,31.3582353 3.50176471,30.7082353 C3.50176471,30.0582353 4.02882353,29.5317647 4.67823529,29.5317647 C5.32823529,29.5317647 5.85470588,30.0582353 5.85470588,30.7082353" id="Fill-4" fill="#8BC640" sketch:type="MSShapeGroup"></path>
                        </g>
                    </g>
                </g>
            </g>
        </g>
    </g>
</svg>