<?xml version="1.0" encoding="UTF-8" standalone="no"?>
<svg width="60px" height="60px" viewBox="0 0 60 60" version="1.1" xmlns="http://www.w3.org/2000/svg" xmlns:xlink="http://www.w3.org/1999/xlink" xmlns:sketch="http://www.bohemiancoding.com/sketch/ns">
    <!-- Generator: Sketch 3.0 (7573) - http://www.bohemiancoding.com/sketch -->
    <title>icn_coding_small</title>
    <description>Created with Sketch.</description>
    <defs>
        <path id="path-1" d="M0.0352941176,0 L29.4117647,0 L29.4117647,29.4117647 L0.0352941176,29.4117647"></path>
    </defs>
    <g id="desktop" stroke="none" stroke-width="1" fill="none" fill-rule="evenodd" sketch:type="MSPage">
        <g id="overview" sketch:type="MSArtboardGroup" transform="translate(-980.000000, -5299.000000)">
            <g sketch:type="MSLayerGroup" id="coding">
                <g transform="translate(349.000000, 5299.000000)">
                    <g id="icn_coding_small" transform="translate(631.000000, 0.000000)">
                        <circle id="Oval-6" stroke="#916395" stroke-width="2" sketch:type="MSShapeGroup" cx="30" cy="30" r="30"></circle>
                        <g id="gear" transform="translate(15.882353, 15.294118)">
                            <g id="Group-3">
                                <mask id="mask-2" sketch:name="Clip 2" fill="white">
                                    <use xlink:href="#path-1"></use>
                                </mask>
                                <g id="Clip-2"></g>
                                <path d="M15.2941176,0.941176471 C15.7629412,0.941176471 16.1176471,1.29529412 16.1176471,1.76470588 L16.1176471,2.94117647 C16.1176471,4.45294118 18.0194118,5.74764706 19.5747059,5.74764706 C20.3582353,5.74764706 21.1111765,5.41294118 21.6082353,4.86235294 L22.3529412,4.11647059 C22.5023529,3.96588235 22.7264706,3.88 22.9652941,3.88 C23.2029412,3.88 23.4258824,3.96588235 23.5752941,4.11588235 L25.2976471,5.83705882 C25.6341176,6.17294118 25.6329412,6.72176471 25.2976471,7.05823529 L24.6047059,7.75235294 C23.9982353,8.30058824 23.6635294,9.04117647 23.6635294,9.83823529 C23.6635294,11.3923529 24.9494118,12.7058824 26.4705882,12.7058824 L27.6470588,12.7058824 C28.1158824,12.7058824 28.4705882,13.06 28.4705882,13.5294118 L28.4705882,15.8823529 C28.4705882,16.3517647 28.1158824,16.7058824 27.6470588,16.7058824 L26.4705882,16.7058824 C24.9494118,16.7058824 23.6635294,18.0194118 23.6635294,19.5735294 C23.6635294,20.3688235 23.99,21.1023529 24.5494118,21.6082353 L25.2964706,22.3523529 C25.6329412,22.69 25.6341176,23.2388235 25.2964706,23.5747059 L23.5752941,25.2964706 C23.4258824,25.4470588 23.2029412,25.5323529 22.9652941,25.5323529 C22.7276471,25.5323529 22.5035294,25.4464706 22.3529412,25.2958824 L21.6588235,24.6029412 C21.1088235,23.9970588 20.3688235,23.6641176 19.5747059,23.6641176 C18.0194118,23.6641176 16.7058824,24.9488235 16.7058824,26.4705882 L16.7058824,27.6470588 C16.7058824,28.1164706 16.3511765,28.4705882 15.8823529,28.4705882 L13.5294118,28.4705882 C13.0605882,28.4705882 12.7058824,28.1164706 12.7058824,27.6470588 L12.7058824,26.4705882 C12.7058824,24.9488235 11.3923529,23.6641176 9.83705882,23.6641176 C9.05352941,23.6641176 8.30058824,23.9988235 7.80352941,24.5494118 L7.05764706,25.2964706 C6.90823529,25.4470588 6.68529412,25.5323529 6.44764706,25.5323529 C6.20882353,25.5323529 5.98705882,25.4470588 5.83647059,25.2958824 L4.11411765,23.5747059 C3.77764706,23.2388235 3.77882353,22.69 4.11411765,22.3535294 L4.80705882,21.6594118 C5.41352941,21.1111765 5.74764706,20.3705882 5.74764706,19.5735294 C5.74764706,18.0194118 4.46235294,16.7058824 2.94117647,16.7058824 L1.76470588,16.7058824 C1.29588235,16.7058824 0.941176471,16.3517647 0.941176471,15.8823529 L0.941176471,13.5294118 C0.941176471,13.06 1.29588235,12.7058824 1.76470588,12.7058824 L2.94117647,12.7058824 C4.46235294,12.7058824 5.74764706,11.3923529 5.74764706,9.83823529 C5.74764706,9.04294118 5.42176471,8.30941176 4.86235294,7.80352941 L4.11529412,7.05941176 C3.77882353,6.72176471 3.77764706,6.17294118 4.11411765,5.83705882 L5.83764706,4.11529412 C5.98588235,3.96529412 6.20882353,3.88 6.44764706,3.88 C6.68647059,3.88 6.90941176,3.96588235 7.05882353,4.11588235 L7.75294118,4.80882353 C8.30294118,5.41470588 9.04294118,5.74764706 9.83705882,5.74764706 C11.3923529,5.74764706 12.7058824,4.46294118 12.7058824,2.94117647 L12.7058824,1.76470588 C12.7058824,1.29529412 13.0605882,0.941176471 13.5294118,0.941176471 L15.2941176,0.941176471 M15.2941176,0 L13.5294118,0 C12.54,0 11.7647059,0.775294118 11.7647059,1.76470588 L11.7647059,2.94117647 C11.7647059,3.95235294 10.8823529,4.80705882 9.83705882,4.80705882 C9.31882353,4.80705882 8.82117647,4.58529412 8.45,4.17647059 L7.72411765,3.45 C7.38294118,3.10882353 6.91529412,2.93882353 6.44764706,2.93882353 C5.97882353,2.93882353 5.51117647,3.10941176 5.17117647,3.45 L3.44882353,5.17117647 C2.74588235,5.87411765 2.74588235,7.01882353 3.44882353,7.72411765 L4.19705882,8.46941176 C4.59,8.82588235 4.80705882,9.31176471 4.80705882,9.83823529 C4.80705882,10.8823529 3.95235294,11.7647059 2.94117647,11.7647059 L1.76470588,11.7647059 C0.775294118,11.7647059 0,12.54 0,13.5294118 L0,15.8823529 C0,16.8717647 0.775294118,17.6470588 1.76470588,17.6470588 L2.94117647,17.6470588 C3.95235294,17.6470588 4.80705882,18.5294118 4.80705882,19.5735294 C4.80705882,20.0929412 4.58529412,20.5917647 4.17647059,20.9617647 L3.44882353,21.6876471 C2.74588235,22.3929412 2.74588235,23.5376471 3.44882353,24.2405882 L5.17117647,25.9617647 C5.51117647,26.3029412 5.97882353,26.4741176 6.44764706,26.4741176 C6.91529412,26.4741176 7.38294118,26.3035294 7.72411765,25.9617647 L8.46941176,25.2147059 C8.82,24.8276471 9.31882353,24.6047059 9.83705882,24.6047059 C10.8823529,24.6047059 11.7647059,25.4594118 11.7647059,26.4705882 L11.7647059,27.6470588 C11.7647059,28.6364706 12.54,29.4117647 13.5294118,29.4117647 L15.8823529,29.4117647 C16.8717647,29.4117647 17.6470588,28.6364706 17.6470588,27.6470588 L17.6470588,26.4705882 C17.6470588,25.4594118 18.5294118,24.6047059 19.5747059,24.6047059 C20.0929412,24.6047059 20.5905882,24.8264706 20.9617647,25.2352941 L21.6876471,25.9617647 C22.0288235,26.3029412 22.4976471,26.4741176 22.9652941,26.4741176 C23.4329412,26.4741176 23.9005882,26.3035294 24.2417647,25.9617647 L25.9629412,24.2405882 C26.6658824,23.5376471 26.6658824,22.3929412 25.9629412,21.6876471 L25.2147059,20.9423529 C24.8217647,20.5858824 24.6047059,20.1 24.6047059,19.5735294 C24.6047059,18.5294118 25.4594118,17.6470588 26.4705882,17.6470588 L27.6470588,17.6470588 C28.6364706,17.6470588 29.4117647,16.8717647 29.4117647,15.8823529 L29.4117647,13.5294118 C29.4117647,12.54 28.6364706,11.7647059 27.6470588,11.7647059 L26.4705882,11.7647059 C25.4594118,11.7647059 24.6047059,10.8823529 24.6047059,9.83823529 C24.6047059,9.31882353 24.8264706,8.82 25.2352941,8.45 L25.9629412,7.72411765 C26.6658824,7.01882353 26.6658824,5.87411765 25.9629412,5.17117647 L24.2417647,3.45 C23.9005882,3.10882353 23.4329412,2.93882353 22.9652941,2.93882353 C22.4976471,2.93882353 22.0288235,3.10941176 21.6876471,3.45 L20.9423529,4.19705882 C20.5917647,4.58411765 20.0929412,4.80705882 19.5747059,4.80705882 C18.4994118,4.80705882 17.0588235,3.88470588 17.0588235,2.94117647 L17.0588235,1.76470588 C17.0588235,0.775294118 16.2835294,0 15.2941176,0" id="Fill-1" stroke="#916395" fill="#916395" sketch:type="MSShapeGroup" mask="url(#mask-2)"></path>
                            </g>
                            <path d="M14.7058824,9.17647059 C17.7552941,9.17647059 20.2352941,11.6564706 20.2352941,14.7058824 C20.2352941,17.7552941 17.7552941,20.2352941 14.7058824,20.2352941 C11.6564706,20.2352941 9.17647059,17.7552941 9.17647059,14.7058824 C9.17647059,11.6564706 11.6564706,9.17647059 14.7058824,9.17647059 M14.7058824,8.23529412 C11.1317647,8.23529412 8.23529412,11.1329412 8.23529412,14.7058824 C8.23529412,18.2794118 11.1317647,21.1764706 14.7058824,21.1764706 C18.28,21.1764706 21.1764706,18.2794118 21.1764706,14.7058824 C21.1764706,11.1329412 18.28,8.23529412 14.7058824,8.23529412" id="Fill-4" stroke="#916395" fill="#916395" sketch:type="MSShapeGroup"></path>
                        </g>
                    </g>
                </g>
            </g>
        </g>
    </g>
</svg>