<?xml version="1.0" encoding="UTF-8" standalone="no"?>
<svg width="102px" height="102px" viewBox="0 0 102 102" version="1.1" xmlns="http://www.w3.org/2000/svg" xmlns:xlink="http://www.w3.org/1999/xlink" xmlns:sketch="http://www.bohemiancoding.com/sketch/ns">
    <!-- Generator: Sketch 3.0 (7573) - http://www.bohemiancoding.com/sketch -->
    <title>icn_coding</title>
    <description>Created with Sketch.</description>
    <defs>
        <path id="path-1" d="M0.06,0 L50,0 L50,50 L0.06,50"></path>
    </defs>
    <g id="desktop" stroke="none" stroke-width="1" fill="none" fill-rule="evenodd" sketch:type="MSPage">
        <g id="overview" sketch:type="MSArtboardGroup" transform="translate(-519.000000, -1917.000000)">
            <g sketch:type="MSLayerGroup" id="services">
                <g transform="translate(364.000000, 1482.000000)">
                    <g id="coding" transform="translate(0.000000, 267.000000)">
                        <g id="icn_coding" transform="translate(155.000000, 168.000000)">
                            <circle id="Oval-6" stroke="#916395" stroke-width="2" sketch:type="MSShapeGroup" cx="51" cy="51" r="51"></circle>
                            <g id="gear" transform="translate(27.000000, 26.000000)">
                                <g id="Group-3">
                                    <mask id="mask-2" sketch:name="Clip 2" fill="white">
                                        <use xlink:href="#path-1"></use>
                                    </mask>
                                    <g id="Clip-2"></g>
                                    <path d="M26,1.6 C26.797,1.6 27.4,2.202 27.4,3 L27.4,5 C27.4,7.57 30.633,9.771 33.277,9.771 C34.609,9.771 35.889,9.202 36.734,8.266 L38,6.998 C38.254,6.742 38.635,6.596 39.041,6.596 C39.445,6.596 39.824,6.742 40.078,6.997 L43.006,9.923 C43.578,10.494 43.576,11.427 43.006,11.999 L41.828,13.179 C40.797,14.111 40.228,15.37 40.228,16.725 C40.228,19.367 42.414,21.6 45,21.6 L47,21.6 C47.797,21.6 48.4,22.202 48.4,23 L48.4,27 C48.4,27.798 47.797,28.4 47,28.4 L45,28.4 C42.414,28.4 40.228,30.633 40.228,33.275 C40.228,34.627 40.783,35.874 41.734,36.734 L43.004,37.999 C43.576,38.573 43.578,39.506 43.004,40.077 L40.078,43.004 C39.824,43.26 39.445,43.405 39.041,43.405 C38.637,43.405 38.256,43.259 38,43.003 L36.82,41.825 C35.885,40.795 34.627,40.229 33.277,40.229 C30.633,40.229 28.4,42.413 28.4,45 L28.4,47 C28.4,47.798 27.797,48.4 27,48.4 L23,48.4 C22.203,48.4 21.6,47.798 21.6,47 L21.6,45 C21.6,42.413 19.367,40.229 16.723,40.229 C15.391,40.229 14.111,40.798 13.266,41.734 L11.998,43.004 C11.744,43.26 11.365,43.405 10.961,43.405 C10.555,43.405 10.178,43.26 9.922,43.003 L6.994,40.077 C6.422,39.506 6.424,38.573 6.994,38.001 L8.172,36.821 C9.203,35.889 9.771,34.63 9.771,33.275 C9.771,30.633 7.586,28.4 5,28.4 L3,28.4 C2.203,28.4 1.6,27.798 1.6,27 L1.6,23 C1.6,22.202 2.203,21.6 3,21.6 L5,21.6 C7.586,21.6 9.771,19.367 9.771,16.725 C9.771,15.373 9.217,14.126 8.266,13.266 L6.996,12.001 C6.424,11.427 6.422,10.494 6.994,9.923 L9.924,6.996 C10.176,6.741 10.555,6.596 10.961,6.596 C11.367,6.596 11.746,6.742 12,6.997 L13.18,8.175 C14.115,9.205 15.373,9.771 16.723,9.771 C19.367,9.771 21.6,7.587 21.6,5 L21.6,3 C21.6,2.202 22.203,1.6 23,1.6 L26,1.6 M26,0 L23,0 C21.318,0 20,1.318 20,3 L20,5 C20,6.719 18.5,8.172 16.723,8.172 C15.842,8.172 14.996,7.795 14.365,7.1 L13.131,5.865 C12.551,5.285 11.756,4.996 10.961,4.996 C10.164,4.996 9.369,5.286 8.791,5.865 L5.863,8.791 C4.668,9.986 4.668,11.932 5.863,13.131 L7.135,14.398 C7.803,15.004 8.172,15.83 8.172,16.725 C8.172,18.5 6.719,20 5,20 L3,20 C1.318,20 0,21.318 0,23 L0,27 C0,28.682 1.318,30 3,30 L5,30 C6.719,30 8.172,31.5 8.172,33.275 C8.172,34.158 7.795,35.006 7.1,35.635 L5.863,36.869 C4.668,38.068 4.668,40.014 5.863,41.209 L8.791,44.135 C9.369,44.715 10.164,45.006 10.961,45.006 C11.756,45.006 12.551,44.716 13.131,44.135 L14.398,42.865 C14.994,42.207 15.842,41.828 16.723,41.828 C18.5,41.828 20,43.281 20,45 L20,47 C20,48.682 21.318,50 23,50 L27,50 C28.682,50 30,48.682 30,47 L30,45 C30,43.281 31.5,41.828 33.277,41.828 C34.158,41.828 35.004,42.205 35.635,42.9 L36.869,44.135 C37.449,44.715 38.246,45.006 39.041,45.006 C39.836,45.006 40.631,44.716 41.211,44.135 L44.137,41.209 C45.332,40.014 45.332,38.068 44.137,36.869 L42.865,35.602 C42.197,34.996 41.828,34.17 41.828,33.275 C41.828,31.5 43.281,30 45,30 L47,30 C48.682,30 50,28.682 50,27 L50,23 C50,21.318 48.682,20 47,20 L45,20 C43.281,20 41.828,18.5 41.828,16.725 C41.828,15.842 42.205,14.994 42.9,14.365 L44.137,13.131 C45.332,11.932 45.332,9.986 44.137,8.791 L41.211,5.865 C40.631,5.285 39.836,4.996 39.041,4.996 C38.246,4.996 37.449,5.286 36.869,5.865 L35.602,7.135 C35.006,7.793 34.158,8.172 33.277,8.172 C31.449,8.172 29,6.604 29,5 L29,3 C29,1.318 27.682,0 26,0" id="Fill-1" stroke="#916395" fill="#916395" sketch:type="MSShapeGroup" mask="url(#mask-2)"></path>
                                </g>
                                <path d="M25,15.6 C30.184,15.6 34.4,19.816 34.4,25 C34.4,30.184 30.184,34.4 25,34.4 C19.816,34.4 15.6,30.184 15.6,25 C15.6,19.816 19.816,15.6 25,15.6 M25,14 C18.924,14 14,18.926 14,25 C14,31.075 18.924,36 25,36 C31.076,36 36,31.075 36,25 C36,18.926 31.076,14 25,14" id="Fill-4" stroke="#916395" fill="#916395" sketch:type="MSShapeGroup"></path>
                            </g>
                        </g>
                    </g>
                </g>
            </g>
        </g>
    </g>
</svg>