<?xml version="1.0" encoding="UTF-8" standalone="no"?>
<svg width="32px" height="32px" viewBox="0 0 32 32" version="1.1" xmlns="http://www.w3.org/2000/svg" xmlns:xlink="http://www.w3.org/1999/xlink" xmlns:sketch="http://www.bohemiancoding.com/sketch/ns">
    <!-- Generator: Sketch 3.0 (7573) - http://www.bohemiancoding.com/sketch -->
    <title>in</title>
    <description>Created with Sketch.</description>
    <defs>
        <path id="path-1" d="M0.0384,0 L32,0 L32,32 L0.0384,32 L0.0384,0 Z"></path>
    </defs>
    <g id="desktop" stroke="none" stroke-width="1" fill="none" fill-rule="evenodd" sketch:type="MSPage">
        <g id="overview" sketch:type="MSArtboardGroup" transform="translate(-1772.000000, -12431.000000)">
            <g sketch:type="MSLayerGroup" id="footer">
                <g transform="translate(204.000000, 12417.000000)">
                    <g id="in" transform="translate(1568.000000, 14.000000)">
                        <mask id="mask-2" sketch:name="Clip 2" fill="white">
                            <use xlink:href="#path-1"></use>
                        </mask>
                        <g id="Clip-2"></g>
                        <path d="M16,0 C7.16352,0 0,7.16416 0,16 C0,24.83648 7.16352,32 16,32 C24.83648,32 32,24.83648 32,16 C32,7.16416 24.83648,0 16,0 L16,0 Z M7.68,11.54112 L11.52,11.54112 L11.52,23.04 L7.68,23.04 L7.68,11.54112 Z M9.58528,9.6 L9.5584,9.6 C8.22272,9.6 7.36,8.68032 7.36,7.53152 C7.36,6.35776 8.25024,5.46368 9.61024,5.46368 C10.97216,5.46368 11.80992,6.35776 11.83488,7.53152 C11.83488,8.68032 10.97216,9.6 9.58528,9.6 L9.58528,9.6 Z M25.6,23.04 L21.76,23.04 L21.76,16 C21.76,14.94016 20.89984,14.08 19.84,14.08 C18.78016,14.08 17.92,14.94016 17.92,16 C17.92,16.15872 17.94624,23.04 17.94624,23.04 L14.08,23.04 L14.08,11.54112 L17.92,11.54112 L17.92,13.46752 C18.44352,12.65024 19.1936,11.52 21.34016,11.52 C23.95776,11.52 25.6,13.16096 25.6,16.83776 L25.6,23.04 L25.6,23.04 Z" id="Fill-1" fill="#FFFFFF" sketch:type="MSShapeGroup" mask="url(#mask-2)"></path>
                    </g>
                </g>
            </g>
        </g>
    </g>
</svg>