<?xml version="1.0" encoding="UTF-8" standalone="no"?>
<svg width="372px" height="49px" viewBox="0 0 372 49" version="1.1" xmlns="http://www.w3.org/2000/svg" xmlns:xlink="http://www.w3.org/1999/xlink" xmlns:sketch="http://www.bohemiancoding.com/sketch/ns">
    <!-- Generator: Sketch 3.0 (7573) - http://www.bohemiancoding.com/sketch -->
    <title>EGP</title>
    <description>Created with Sketch.</description>
    <defs></defs>
    <g id="desktop" stroke="none" stroke-width="1" fill="none" fill-rule="evenodd" sketch:type="MSPage">
        <g id="overview" sketch:type="MSArtboardGroup" transform="translate(-1000.000000, -8321.000000)" fill="#B2B2B2">
            <g sketch:type="MSLayerGroup" id="clients">
                <g transform="translate(360.000000, 8191.000000)" sketch:type="MSShapeGroup">
                    <g id="Group" transform="translate(0.000000, 129.000000)">
                        <g id="EGP" transform="translate(640.000000, 2.000000)">
                            <path d="M42.3247813,5.18777143 C42.5971275,3.12514286 43.8662466,1.36388571 45.2598767,-0.109714286 C45.9218767,1.73211429 46.5759876,3.72205714 46.1890777,5.69622857 C45.875228,7.24251429 44.4164269,8.13737143 43.0203959,8.58377143 C42.5322995,7.52777143 42.1429886,6.36308571 42.3247813,5.18777143" id="Fill-1"></path>
                            <path d="M37.2791751,4.12937143 C37.1989119,3.1512 37.533685,2.21485714 37.9072176,1.33028571 C39.2415078,1.93714286 40.7908622,2.65817143 41.3046839,4.15268571 C41.771857,5.80765714 40.6402829,7.28914286 39.6435098,8.48228571 C38.462886,7.30971429 37.3546363,5.85702857 37.2791751,4.12937143" id="Fill-2"></path>
                            <path d="M36.6953803,26.0454857 C39.4696062,28.6529143 41.5797741,32.0410286 42.3429606,35.7949714 C42.9188663,38.6691429 42.7995005,41.676 42.104229,44.5220571 C40.313399,42.1844571 38.8391627,39.6006857 37.6996995,36.8869714 C36.2878902,33.4909714 35.680428,29.6362286 36.6953803,26.0454857" id="Fill-3"></path>
                            <path d="M47.2740031,4.56514286 C48.7039917,2.78811429 50.9023119,1.88537143 53.0385482,1.28091429 C52.0081606,3.7584 50.7699119,6.28251429 48.7197699,8.08045714 C47.9332591,8.77302857 46.9652984,9.21908571 45.945201,9.44502857 C45.807656,7.7328 46.1657534,5.91942857 47.2740031,4.56514286" id="Fill-4"></path>
                            <path d="M25.5871575,2.00468571 C27.6218642,2.33417143 29.8150394,3.14365714 30.9205451,5.00365714 C31.9588218,6.708 31.8264218,8.77817143 31.7509606,10.6902857 C30.0146684,10.6330286 28.0629689,10.1869714 27.0301803,8.65611429 C25.753172,6.69497143 25.7713513,4.25382857 25.5871575,2.00468571" id="Fill-5"></path>
                            <path d="M25.6468404,35.9142857 C26.0464415,32.6557714 27.0977523,29.3403429 29.3193969,26.8549714 C30.850572,31.2963429 31.2604632,36.2228571 29.8044062,40.7420571 C29.0052041,43.1496 27.8969544,45.5129143 26.2879171,47.4898286 C25.5583451,43.6841143 25.2444953,39.7745143 25.6468404,35.9142857" id="Fill-6"></path>
                            <path d="M32.0963668,2.01257143 C33.6611565,2.49222857 35.4701658,3.01371429 36.3293938,4.53908571 C37.1028705,6.04114286 36.3708974,7.7328 35.7377098,9.144 C34.5022052,8.94685714 33.1212663,8.5008 32.5271813,7.29428571 C31.7485596,5.652 31.9794021,3.76594286 32.0963668,2.01257143" id="Fill-7"></path>
                            <path d="M34.2634736,47.3235429 C30.7778549,40.9522286 30.7493855,33.1512 32.9864653,26.3595429 C35.1120684,30.0174857 36.7447731,34.0957714 36.871685,38.3736 C36.9704705,41.5357714 36.0258342,44.6982857 34.2634736,47.3235429" id="Fill-8"></path>
                            <path d="M55.6910073,3.94251429 C57.061313,3.45222857 58.5043358,3.19782857 59.9497596,3.07337143 C58.192887,5.98697143 55.540428,8.43325714 52.3220104,9.62125714 C50.8271938,10.1972571 49.2308477,10.4256 47.6399896,10.5085714 C49.5347503,7.54594286 52.3220104,5.07634286 55.6910073,3.94251429" id="Fill-9"></path>
                            <path d="M18.8210373,4.38857143 C21.4162145,4.92822857 24.0868528,5.9064 25.8804269,7.95325714 C26.9938218,9.18034286 27.5518912,10.8147429 27.6606238,12.4542857 C25.9061523,12.9212571 23.9469067,12.5036571 22.6544632,11.1936 C20.7984622,9.31508571 19.7629295,6.81188571 18.8210373,4.38857143" id="Fill-10"></path>
                            <path d="M49.3917171,12.3298286 C52.6488943,9.92502857 56.272058,7.81062857 60.2975668,7.0608 C61.6263689,6.82217143 62.9863845,6.75462857 64.3230756,6.97782857 C62.028714,9.49165714 59.0624052,11.5049143 55.6961523,12.2180571 C53.6274881,12.6905143 51.4813047,12.6514286 49.3917171,12.3298286" id="Fill-11"></path>
                            <g id="Group" transform="translate(77.000000, 12.000000)">
                                <path d="M30.3138948,0.169383459 C30.8755995,0.165413534 31.4373043,0.165413534 32.0029927,0.165413534 C32.0109602,4.19488722 31.999009,8.22833083 32.0149439,12.2617744 C32.0388462,14.7906165 31.2221833,17.4226767 29.4215411,19.2607519 C26.5094407,22.0595489 21.6851538,22.420812 18.2472021,20.3961504 C15.55819,18.8518496 14.2316107,15.6878195 14.183806,12.6984662 C14.1718549,8.51813534 14.183806,4.34177444 14.183806,0.161443609 C14.6060805,0.165413534 15.4506295,0.165413534 15.872904,0.165413534 C15.8768877,3.93287218 15.8689203,7.70033083 15.872904,11.4677895 C15.8928226,13.5758195 16.2194878,15.8029474 17.5779368,17.5020752 C20.051828,20.6978647 25.4019661,20.8844511 28.1905712,18.0022857 C29.7362552,16.3865263 30.282025,14.0958797 30.3099111,11.9203609 C30.3218622,8.00204511 30.3099111,4.08372932 30.3138948,0.169383459" id="Fill-12"></path>
                                <path d="M59.6818904,0.209082707 C63.3628491,-0.707969925 67.5258382,0.0741052632 70.3981015,2.61485714 C74.5849929,6.10839098 75.2781604,12.865203 71.9716715,17.1686015 C68.4819314,22.051609 60.9566813,23.0798195 56.1124758,19.6537744 C52.7223288,17.3631278 50.8898168,13.0597293 51.602903,9.03819549 C52.160624,4.81022556 55.5547548,1.21744361 59.6818904,0.209082707 L59.6818904,0.209082707 Z M60.1041649,1.82881203 C57.0167806,2.68234586 54.4472802,5.23103759 53.662487,8.33948872 C52.8498078,11.1819549 53.5788289,14.3737744 55.4551618,16.6525113 C58.0605157,19.8602105 62.8409816,20.9122406 66.6175497,19.2686917 C69.9877781,17.8871579 72.2903692,14.3261353 72.1589064,10.6976241 C72.2545157,7.72415038 70.6849294,4.83404511 68.258843,3.14682707 C65.9283658,1.5032782 62.8369979,1.03085714 60.1041649,1.82881203 L60.1041649,1.82881203 Z" id="Fill-13"></path>
                                <path d="M115.581472,0.641804511 C115.712935,-0.00926315789 116.330411,-0.0767518797 116.888132,-0.120421053 C120.154784,7.06514286 123.493143,14.2189474 126.767762,21.3965714 C126.150285,21.4005414 125.532808,21.4005414 124.919315,21.4005414 C123.811841,18.9550677 122.652578,16.5294436 121.569005,14.0760301 C118.135037,14.0403008 114.705053,14.0680902 111.271085,14.0601504 C110.143692,16.5016541 109.016299,18.9471278 107.90484,21.3965714 C107.279396,21.4005414 106.653952,21.4045113 106.032491,21.4084812 C109.215485,14.4849323 112.414413,7.56932331 115.581472,0.641804511 L115.581472,0.641804511 Z M116.378216,2.84511278 C114.912207,6.09251128 113.422295,9.328 111.948318,12.5714286 C114.924158,12.5714286 117.896014,12.5674586 120.871854,12.5753985 C119.366007,9.33593985 117.903981,6.07663158 116.378216,2.84511278 L116.378216,2.84511278 Z" id="Fill-14"></path>
                                <path d="M152.219759,4.27031579 C154.390888,1.24920301 158.21526,-0.29112782 161.884268,-0.148210526 C164.358159,-0.219669173 166.72449,0.633864662 168.95139,1.61443609 C168.947406,2.27741353 168.95139,2.94039098 168.963341,3.60733835 C166.206606,2.08685714 163.007677,1.07055639 159.836635,1.57870677 C156.693479,2.0153985 153.861053,4.21473684 152.721708,7.1683609 C151.347324,10.7492331 152.15602,15.2233383 155.123892,17.7799699 C158.569812,20.6462556 163.728731,20.6065564 167.652697,18.7684812 C167.65668,16.9026165 167.648713,15.032782 167.652697,13.1669173 L163.17101,13.1669173 C163.163043,12.6667068 163.17101,12.1704662 163.17101,11.6742256 C165.230594,11.6781955 167.286194,11.6821654 169.345778,11.6781955 C169.337811,14.4253835 169.365697,17.1765414 169.329844,19.9276992 C165.692706,21.579188 161.446059,22.2977444 157.589816,20.9916391 C154.327148,19.9316692 151.61025,17.2718195 150.654157,13.9688421 C149.733917,10.7293835 150.156192,7.00162406 152.219759,4.27031579" id="Fill-15"></path>
                                <path d="M243.905112,1.09437594 C246.494531,-0.866766917 250.103783,-0.271278195 252.812713,1.13010526 C252.800762,1.78117293 252.796778,2.4322406 252.796778,3.0872782 C251.48215,2.44018045 250.187441,1.65016541 248.701513,1.4873985 C247.020382,1.26905263 245.108196,1.8883609 244.179989,3.36914286 C243.203977,4.75861654 243.311537,6.90237594 244.681937,8.00204511 C246.984529,9.87584962 250.378659,9.89172932 252.426292,12.1506165 C254.641241,14.7032782 253.832546,19.1218045 250.864673,20.7455038 C248.060133,22.4684511 244.50267,21.5394887 241.945121,19.8125714 C241.941137,19.1218045 241.941137,18.4270677 241.949104,17.7363008 C243.805519,19.0106466 245.940794,20.4556992 248.323059,19.9356391 C251.043941,19.5426165 252.788811,16.0927519 251.195322,13.7663759 C249.107852,10.9794887 244.901042,11.3606015 242.702028,8.69678195 C240.857565,6.41804511 241.538781,2.74983459 243.905112,1.09437594" id="Fill-16"></path>
                                <path d="M276.507889,0.165413534 L278.300564,0.165413534 C278.29658,4.07181955 278.300564,7.97425564 278.29658,11.8806617 C278.288613,14.0760301 278.834383,16.4222556 280.427871,18.0300752 C283.228428,20.8844511 288.554663,20.7018346 291.008636,17.4861955 C292.482613,15.6957594 292.677815,13.289985 292.729604,11.0668271 C292.75749,7.43434586 292.733587,3.79789474 292.741555,0.165413534 C293.299276,0.165413534 293.864964,0.165413534 294.434636,0.169383459 C294.430653,4.07181955 294.430653,7.97822556 294.43862,11.8806617 C294.434636,14.2189474 293.904802,16.6604511 292.438792,18.5342556 C288.980922,22.9567519 281.061283,22.7026767 278.069508,17.8871579 C276.826587,16.0054135 276.523824,13.7068271 276.507889,11.5035188 C276.503906,7.72415038 276.511873,3.94478195 276.507889,0.165413534" id="Fill-17"></path>
                                <path d="M-0.563931296,0.169383459 C3.32418098,0.161443609 7.20830953,0.165413534 11.0924381,0.165413534 L11.0924381,1.55488722 C7.77001428,1.55488722 4.45157419,1.55091729 1.12915038,1.55885714 C1.13711782,4.36956391 1.1331341,7.18027068 1.1331341,9.99097744 L10.793659,9.99097744 L10.793659,11.3804511 C7.57481192,11.3804511 4.35198115,11.3764812 1.1331341,11.3804511 L1.1331341,19.9157895 L11.2876404,19.9157895 C11.2876404,20.4120301 11.2916242,20.9082707 11.2916242,21.4045113 C7.33977235,21.4045113 3.38792053,21.4084812 -0.563931296,21.4005414 C-0.555963853,14.3221654 -0.559947575,7.2477594 -0.563931296,0.169383459" id="Fill-18"></path>
                                <path d="M35.6919189,0.165413534 C38.910766,0.379789474 42.3407503,-0.418165414 45.3882973,0.919699248 C48.4318606,2.20595489 49.2007189,6.60463158 47.0773953,9.01040602 C46.3643091,9.8401203 45.3604112,10.3204812 44.4043181,10.804812 C45.7269136,11.8250827 46.5834138,13.2820451 47.4996697,14.6476992 C48.9616956,16.8986466 50.4555912,19.1337143 51.9016821,21.4005414 C51.2124983,21.4045113 50.5312819,21.4084812 49.8460818,21.4124511 C48.2764955,19.0265263 46.794551,16.5850226 45.2050461,14.2110075 C44.3684646,13.0478195 43.4442412,11.7139248 41.958313,11.3725113 C40.4444988,11.174015 38.9067823,11.3209023 37.3850006,11.281203 C37.3810169,14.6556391 37.3850006,18.0300752 37.3850006,21.4045113 C36.8153284,21.4045113 36.2536237,21.4045113 35.6919189,21.4005414 L35.6919189,0.165413534 L35.6919189,0.165413534 Z M37.3810169,1.56282707 C37.3850006,4.30604511 37.3810169,7.04926316 37.3850006,9.7924812 C39.783201,9.71705263 42.3845712,10.1338947 44.5796018,8.93497744 C46.9538999,7.68445113 46.9897534,3.75819549 44.6433414,2.464 C42.4522945,1.18965414 39.7991359,1.63428571 37.3810169,1.56282707 L37.3810169,1.56282707 Z" id="Fill-19"></path>
                                <path d="M77.2222166,0.161443609 C80.5844776,0.407578947 84.1658433,-0.461834586 87.3448531,0.943518797 C90.9262188,2.59500752 91.1293886,8.33948872 87.7950137,10.3562105 C85.15779,11.9560902 81.9429266,11.3685414 79.0148913,11.4796992 L79.0148913,21.4045113 L77.2222166,21.4045113 L77.2222166,0.161443609 L77.2222166,0.161443609 Z M79.0148913,1.55488722 L79.0148913,9.99097744 C81.4489452,9.84806015 84.0901526,10.4435489 86.344939,9.27242105 C88.8467162,7.95837594 88.9383418,3.88126316 86.516239,2.4322406 C84.2574689,1.08643609 81.508701,1.68986466 79.0148913,1.55488722 L79.0148913,1.55488722 Z" id="Fill-20"></path>
                                <path d="M92.8583238,0.165413534 L104.510709,0.165413534 L104.510709,1.55488722 L94.5514055,1.55488722 L94.5514055,9.99097744 C97.806106,9.99097744 101.056823,9.99097744 104.311523,9.99494737 C104.311523,10.3403308 104.311523,11.0310977 104.315507,11.3764812 C101.060807,11.3804511 97.806106,11.3804511 94.5514055,11.3804511 L94.5514055,19.9157895 L104.809489,19.9157895 C104.805505,20.4120301 104.809489,20.9043008 104.813472,21.4005414 C100.825767,21.4084812 96.8420454,21.4045113 92.8583238,21.4045113 L92.8583238,0.165413534" id="Fill-21"></path>
                                <path d="M128.508648,21.4005414 C128.516616,14.3221654 128.508648,7.24378947 128.516616,0.169383459 C128.879134,0.165413534 129.612139,0.157473684 129.974658,0.157473684 C135.316829,6.24336842 140.639081,12.3451429 145.929463,18.4786767 C145.957349,12.3729323 145.933447,6.27115789 145.941414,0.165413534 L147.734089,0.165413534 L147.734089,21.4045113 L146.268079,21.4045113 C140.925909,15.2550977 135.559836,9.12553383 130.205714,2.98803008 C130.20173,9.12553383 130.205714,15.2670075 130.205714,21.4045113 C129.636042,21.4045113 129.070353,21.4045113 128.508648,21.4005414" id="Fill-22"></path>
                                <path d="M172.831535,0.161443609 C176.130056,0.403609023 179.683536,-0.485654135 182.762953,1.04673684 C185.54359,2.44415038 186.216839,6.46965414 184.336523,8.84366917 C183.62742,9.76866165 182.547832,10.276812 181.531983,10.7849624 C182.39645,11.5749774 183.17726,12.4563008 183.810672,13.4408421 C185.567493,16.0808421 187.296428,18.7406917 189.021379,21.4045113 L186.929926,21.4045113 C185.451965,19.0662256 183.97002,16.7319098 182.46019,14.4134737 C181.57182,13.1669173 180.619711,11.6702556 178.998336,11.3606015 C177.512408,11.1898947 176.014528,11.3129624 174.524616,11.281203 C174.524616,14.6556391 174.520633,18.0300752 174.524616,21.4005414 C173.958928,21.4045113 173.39324,21.4045113 172.831535,21.4045113 L172.831535,0.161443609 L172.831535,0.161443609 Z M174.524616,1.55885714 L174.524616,9.7924812 C176.886963,9.71705263 179.440529,10.121985 181.619625,8.98658647 C183.974004,7.77972932 184.161239,4.0321203 181.94629,2.59103759 C179.76321,1.14598496 176.994524,1.64619549 174.524616,1.55885714 L174.524616,1.55885714 Z" id="Fill-23"></path>
                                <path d="M190.658689,21.4045113 C190.666656,14.3221654 190.642754,7.23981955 190.67064,0.157473684 C194.550785,0.173353383 198.43093,0.161443609 202.311075,0.165413534 C202.311075,0.514766917 202.311075,1.20950376 202.307091,1.55488722 L192.451364,1.55488722 C192.44738,4.36559398 192.451364,7.17630075 192.451364,9.99097744 C195.670211,9.99494737 198.889058,9.99097744 202.111889,9.99097744 C202.107905,10.4554586 202.107905,10.9159699 202.111889,11.3804511 C198.889058,11.3804511 195.670211,11.3764812 192.451364,11.3844211 C192.451364,14.2268872 192.44738,17.0693534 192.451364,19.9157895 L202.609854,19.9157895 C202.60587,20.4120301 202.60587,20.9082707 202.609854,21.4045113 L190.658689,21.4045113" id="Fill-24"></path>
                                <path d="M205.199273,0.165413534 L216.951251,0.165413534 L216.951251,1.55488722 C213.628828,1.55488722 210.310388,1.55091729 206.987964,1.55488722 C206.991947,4.36559398 206.991947,7.18027068 206.991947,9.99097744 C210.206811,9.99097744 213.425658,9.99891729 216.640521,9.98700752 C216.648489,10.332391 216.66044,11.0231579 216.668407,11.3645714 C213.441593,11.3963308 210.214778,11.3685414 206.991947,11.3844211 C206.995931,14.2308571 206.976013,17.0733233 207.003899,19.9197594 C210.386078,19.9078496 213.764274,19.9197594 217.146454,19.9157895 C217.146454,20.4080602 217.146454,20.9043008 217.154421,21.4005414 C213.166716,21.4084812 209.182994,21.4045113 205.199273,21.4045113 L205.199273,0.165413534" id="Fill-25"></path>
                                <path d="M219.337501,0.169383459 C219.855385,0.165413534 220.377252,0.165413534 220.903103,0.165413534 C226.213404,6.28306767 231.547607,12.3848421 236.865876,18.5024962 C236.881811,12.3848421 236.853925,6.27115789 236.877827,0.157473684 C237.467418,0.161443609 238.064976,0.165413534 238.666518,0.169383459 C238.65855,7.24378947 238.65855,14.3221654 238.666518,21.3965714 C238.172536,21.4005414 237.686522,21.4084812 237.204492,21.4164211 C231.814517,15.3265564 226.528118,9.15332331 221.142127,3.06345865 C221.126192,9.17714286 221.138143,15.2908271 221.134159,21.4045113 L219.341484,21.4045113 C219.341484,14.3261353 219.341484,7.2477594 219.337501,0.169383459" id="Fill-26"></path>
                                <path d="M261.768119,0.165413534 L273.420505,0.165413534 L273.420505,1.55488722 C270.129951,1.55488722 266.843381,1.55091729 263.560794,1.55885714 C263.568762,4.36956391 263.544859,7.1842406 263.572745,9.99891729 C266.787609,9.98303759 270.002472,9.99494737 273.221319,9.99097744 C273.221319,10.3403308 273.221319,11.0310977 273.225303,11.3804511 C270.002472,11.3804511 266.779641,11.3764812 263.560794,11.3804511 L263.560794,19.9157895 L273.7153,19.9157895 C273.7153,20.4120301 273.7153,20.9043008 273.723268,21.4005414 C269.735563,21.4084812 265.751841,21.4045113 261.768119,21.4045113 L261.768119,0.165413534" id="Fill-27"></path>
                                <path d="M256.290502,19.2210526 C256.947816,19.2210526 257.613098,19.2210526 258.282363,19.2250226 C258.274396,19.9515188 258.278379,20.678015 258.282363,21.4045113 L256.290502,21.4045113 C256.286519,20.678015 256.282535,19.9475489 256.290502,19.2210526" id="Fill-28"></path>
                            </g>
                            <path d="M10.4143233,8.46171429 C14.099914,8.5008 18.0163472,8.80148571 21.2189865,10.8044571 C23.0125606,11.9612571 24.3725762,13.6813714 25.3508269,15.5595429 C19.6957005,15.3493714 14.1595969,12.6929143 10.4143233,8.46171429" id="Fill-29"></path>
                            <path d="M49.6150135,16.9632 C51.4579803,14.4802286 54.419144,12.9418286 57.460914,12.5581714 C60.9283534,12.1014857 64.4294073,12.8122286 67.7126528,13.8994286 C66.7755627,14.6489143 65.6649119,15.1237714 64.5981658,15.6504 C61.4058166,17.1291429 57.9308311,18.2448 54.3724953,18.0785143 C52.7295005,18.0216 51.1307534,17.5779429 49.6150135,16.9632" id="Fill-30"></path>
                            <path d="M1.45262694,15.6788571 C5.02639793,14.8436571 8.64441658,14.0989714 12.314229,13.8552 C14.561942,13.7461714 16.9341658,13.8085714 18.9791627,14.8590857 C20.5182269,15.6373714 21.6782705,16.9656 22.6359409,18.3716571 C20.6609171,19.1009143 18.5925959,19.656 16.4745389,19.6923429 C13.4173337,19.7856 10.4352466,18.9243429 7.55709016,17.9801143 C5.5014601,17.2693714 3.45371917,16.5270857 1.45262694,15.6788571" id="Fill-31"></path>
                            <path d="M11.7873731,21.2382857 C15.5508259,20.0708571 19.6048041,19.8737143 23.4639554,20.6677714 C21.5071109,23.6458286 18.3538642,25.716 14.9148943,26.5669714 C10.061371,27.8122286 4.97460415,27.5269714 0.0538518135,26.8782857 C3.76242383,24.6212571 7.62980725,22.5380571 11.7873731,21.2382857" id="Fill-32"></path>
                            <path d="M47.5542383,21.1968 C50.4197036,19.7053714 53.6820259,18.7244571 56.9392031,19.1266286 C59.6564902,19.4122286 62.2077627,20.6650286 64.2843161,22.4108571 C61.0556083,23.9184 57.4272995,24.9558857 53.8480404,24.3229714 C51.4888508,23.952 49.3426674,22.7509714 47.5542383,21.1968" id="Fill-33"></path>
                            <path d="M44.7824135,12.9185143 C43.3393907,11.5409143 41.2501461,11.1699429 39.3269161,11.1312 C36.804113,11.1857143 34.2401492,11.7589714 32.0442301,13.0251429 L32.0366839,13.1417143 L31.844601,13.1286857 C30.1288891,13.8864 28.7016446,15.1913143 27.5570363,16.6570286 C26.879601,17.6530286 26.4669658,18.8050286 26.4096839,20.0112 C26.5084694,21.3654857 27.3025264,22.572 28.4601689,23.2669714 L28.4574249,23.3163429 C29.6644601,23.9053714 30.9699378,24.24 32.303885,24.3826286 C33.5884394,24.3696 34.8733368,24.2866286 36.1397119,24.0661714 L36.1503451,24.0219429 C36.9080435,23.8508571 37.6605969,23.6458286 38.397715,23.3969143 C39.4853845,22.9686857 40.5493865,22.4732571 41.5434155,21.8533714 C43.3160663,20.6832 45.0081109,19.1475429 45.7064694,17.0849143 C46.2175472,15.6634286 45.9009534,13.9614857 44.7824135,12.9185143" id="Fill-34"></path>
                            <path d="M44.8499855,23.8820571 C47.2115762,23.4253714 49.783772,23.7702857 51.7745741,25.1790857 C54.5254756,27.0730286 56.1526922,30.1443429 57.3206249,33.1902857 C53.757144,32.9982857 50.1394684,31.6467429 47.7620995,28.9045714 C46.4669119,27.4464 45.5092415,25.7108571 44.8499855,23.8820571" id="Fill-35"></path>
                            <path d="M18.7455762,26.1027429 C20.3755368,25.3450286 22.0675813,24.72 23.8066176,24.2684571 C22.8489472,27.8694857 20.9438964,31.3354286 17.9203057,33.5976 C14.2089896,36.4278857 9.51907979,37.476 4.98763834,38.1270857 C8.71438964,33.2835429 13.1292093,28.7177143 18.7455762,26.1027429" id="Fill-36"></path>
                            <path d="M17.0404974,37.6549714 C19.1633565,33.2578286 22.2260497,29.3482286 25.7401378,25.9782857 C26.1243036,29.7476571 26.0128269,33.7841143 24.0686736,37.1540571 C22.1197181,40.6954286 18.6159202,43.0433143 15.0212259,44.6931429 C15.1927285,42.2362286 15.9816404,39.8653714 17.0404974,37.6549714" id="Fill-37"></path>
                            <path d="M40.051,26.1648 C42.5504788,26.0067429 45.1977927,26.8652571 46.7680705,28.8939429 C49.3320342,32.1524571 49.8695233,36.4614857 50.1679378,40.4643429 C46.4538777,39.2451429 43.8168539,36.0336 42.233885,32.5830857 C41.2837606,30.5283429 40.5675658,28.3673143 40.051,26.1648" id="Fill-38"></path>
                        </g>
                    </g>
                </g>
            </g>
        </g>
    </g>
</svg>