<?xml version="1.0" encoding="UTF-8" standalone="no"?>
<svg width="222px" height="48px" viewBox="0 0 222 48" version="1.1" xmlns="http://www.w3.org/2000/svg" xmlns:xlink="http://www.w3.org/1999/xlink" xmlns:sketch="http://www.bohemiancoding.com/sketch/ns">
    <!-- Generator: Sketch 3.0 (7573) - http://www.bohemiancoding.com/sketch -->
    <title>mp</title>
    <description>Created with Sketch.</description>
    <defs></defs>
    <g id="desktop" stroke="none" stroke-width="1" fill="none" fill-rule="evenodd" sketch:type="MSPage">
        <g id="overview" sketch:type="MSArtboardGroup" transform="translate(-707.000000, -8321.000000)" fill="#B2B2B2">
            <g sketch:type="MSLayerGroup" id="clients">
                <g transform="translate(360.000000, 8191.000000)" sketch:type="MSShapeGroup">
                    <g id="Group" transform="translate(0.000000, 129.000000)">
                        <g id="mp" transform="translate(347.000000, 1.000000)">
                            <path d="M89.2740301,13.4615172 L91.3419586,13.4615172 L91.3419586,27.6273103 L89.2740301,27.6273103 L89.2740301,13.4615172 Z M103.921511,25.8645517 C103.921511,26.3743448 103.77944,26.8237241 103.495297,27.2135172 C103.211154,27.6024828 102.791586,27.7969655 102.237425,27.7969655 C101.953282,27.7969655 101.718989,27.7547586 101.533714,27.6695172 C101.349271,27.5851034 101.196398,27.4684138 101.075098,27.3194483 C100.954628,27.1713103 100.848282,26.9975172 100.755229,26.7988966 C100.663008,26.6011034 100.567462,26.3958621 100.467763,26.1831724 L95.6489662,16.137931 L95.6489662,27.6273103 L93.6666128,27.6273103 L93.6666128,15.4154483 C93.6666128,14.8634483 93.7912368,14.3784828 94.0396541,13.9613793 C94.2889023,13.5434483 94.7250865,13.334069 95.3506992,13.334069 C95.6348421,13.334069 95.8699662,13.3771034 96.0544098,13.4615172 C96.2396842,13.5467586 96.3958797,13.6601379 96.5238271,13.8016552 C96.6517744,13.9431724 96.7614436,14.1095172 96.8536654,14.3006897 C96.946718,14.4918621 97.0497406,14.7004138 97.1635639,14.9271724 L101.939158,24.9517241 L101.939158,13.4615172 L103.921511,13.4615172 L103.921511,25.8645517 L103.921511,25.8645517 Z M115.797353,21.8722759 L115.797353,27.6273103 L113.729425,27.6273103 L113.729425,21.8722759 L108.974602,13.4615172 L111.341628,13.4615172 L114.709801,19.5997241 L118.206752,13.4615172 L120.572947,13.4615172 L115.797353,21.8722759 L115.797353,21.8722759 Z M131.574759,24.4204138 C131.574759,25.5393103 131.279816,26.3528276 130.689929,26.8626207 C130.100041,27.3724138 129.257583,27.6273103 128.163383,27.6273103 L125.029504,27.6273103 C124.588335,27.6273103 124.155474,27.5851034 123.728429,27.4998621 C123.302214,27.4154483 122.918372,27.2242759 122.576902,26.9263448 C122.222139,26.6292414 121.969568,26.2543448 121.82085,25.8008276 C121.671301,25.3481379 121.596526,24.8946207 121.596526,24.441931 L121.596526,16.689931 C121.596526,16.2223448 121.674624,15.7696552 121.83082,15.3310345 C121.987846,14.8915862 122.243741,14.510069 122.598504,14.184 C122.939974,13.8728276 123.316338,13.6742069 123.728429,13.5897931 C124.140519,13.5045517 124.574211,13.4615172 125.029504,13.4615172 L128.184985,13.4615172 C129.293308,13.4615172 130.135767,13.7172414 130.71153,14.2262069 C131.287293,14.736 131.574759,15.5577931 131.574759,16.689931 L131.574759,24.4204138 L131.574759,24.4204138 Z M129.527602,17.2849655 C129.527602,16.6336552 129.382207,16.1768276 129.090586,15.9153103 C128.799797,15.6529655 128.333703,15.5222069 127.694797,15.5222069 L125.519692,15.5222069 C124.879955,15.5222069 124.411368,15.6496552 124.112271,15.9045517 C123.814004,16.1594483 123.664455,16.6195862 123.664455,17.2849655 L123.664455,23.8468966 C123.664455,24.0877241 123.696857,24.3252414 123.760831,24.5586207 C123.824805,24.792 123.949429,25.0005517 124.133872,25.1851034 C124.33244,25.3828966 124.549286,25.4962759 124.78441,25.5252414 C125.018703,25.5533793 125.263797,25.5674483 125.519692,25.5674483 L127.694797,25.5674483 C128.305455,25.5674483 128.764071,25.4507586 129.069816,25.2173793 C129.374729,24.9831724 129.527602,24.5478621 129.527602,23.9106207 L129.527602,17.2849655 L129.527602,17.2849655 Z M144.090338,24.0595862 C144.090338,24.6115862 144.040489,25.104 143.940789,25.5351724 C143.84109,25.9671724 143.585195,26.3884138 143.173105,26.7988966 C142.974538,26.9975172 142.778462,27.1531034 142.586541,27.2664828 C142.395451,27.3798621 142.196053,27.4642759 141.990008,27.5213793 C141.783962,27.5776552 141.567117,27.609931 141.33947,27.6165517 C141.111823,27.624 140.863406,27.6273103 140.593387,27.6273103 L137.353162,27.6273103 C136.812293,27.6273103 136.34703,27.5884138 135.956541,27.5106207 C135.565222,27.4328276 135.170579,27.1953103 134.772613,26.7988966 C134.559921,26.5870345 134.388771,26.3776552 134.260823,26.1724138 C134.132876,25.9671724 134.040654,25.7586207 133.984158,25.545931 C133.926831,25.334069 133.891936,25.1073103 133.877812,24.8664828 C133.862857,24.6256552 133.856211,24.3566897 133.856211,24.0595862 L133.856211,13.4615172 L135.924139,13.4615172 L135.924139,23.6772414 C135.924139,24.0595862 135.959865,24.3707586 136.030485,24.6115862 C136.101936,24.8524138 136.215759,25.0435862 136.371955,25.1851034 C136.52815,25.3266207 136.730872,25.425931 136.979289,25.4822069 C137.228538,25.5393103 137.537605,25.5674483 137.907323,25.5674483 L140.039226,25.5674483 C140.39482,25.5674483 140.69641,25.5426207 140.945658,25.4929655 C141.194075,25.4433103 141.40012,25.3481379 141.563793,25.2066207 C141.727466,25.0651034 141.844613,24.873931 141.915233,24.6331034 C141.986684,24.3922759 142.021579,24.0877241 142.021579,23.7194483 L142.021579,13.4615172 L144.090338,13.4615172 L144.090338,24.0595862 L144.090338,24.0595862 Z M153.919023,27.6273103 L148.844331,22.1908966 C148.745462,22.0775172 148.678165,21.936 148.64244,21.7655172 C148.606714,21.5958621 148.589267,21.4402759 148.589267,21.2987586 C148.589267,20.8593103 148.698936,20.5514483 148.919105,20.3751724 C149.139274,20.198069 149.45582,20.102069 149.86791,20.088 C150.365575,20.0598621 150.869887,20.0524138 151.381677,20.0664828 C151.893466,20.0813793 152.397778,20.0813793 152.895444,20.0664828 C153.378985,20.0524138 153.752026,19.9357241 154.015398,19.7164138 C154.27794,19.4971034 154.409211,19.1395862 154.409211,18.6438621 L154.409211,17.030069 C154.409211,16.4921379 154.249692,16.1056552 153.929823,15.8722759 C153.609955,15.6388966 153.201188,15.5222069 152.703523,15.5222069 L148.418117,15.5222069 L148.418117,27.6273103 L146.350188,27.6273103 L146.350188,13.4615172 L153.300887,13.4615172 C154.281263,13.4615172 155.056425,13.7097931 155.624711,14.2055172 C156.192996,14.7004138 156.477139,15.4584828 156.477139,16.478069 L156.477139,18.9202759 C156.477139,19.8124138 156.203797,20.5233103 155.656282,21.0546207 C155.109598,21.5851034 154.38844,21.8507586 153.492808,21.8507586 L151.105011,21.8507586 L156.498741,27.6273103 L153.919023,27.6273103 L153.919023,27.6273103 Z" id="Fill-1"></path>
                            <path d="M172.552812,24.4204138 C172.552812,25.5393103 172.258699,26.3528276 171.668812,26.8626207 C171.078094,27.3724138 170.236466,27.6273103 169.142267,27.6273103 L166.007556,27.6273103 C165.567218,27.6273103 165.133526,27.5851034 164.707312,27.4998621 C164.281098,27.4154483 163.897256,27.2242759 163.555786,26.9263448 C163.201023,26.6292414 162.948451,26.2543448 162.798902,25.8008276 C162.650184,25.3481379 162.57541,24.8946207 162.57541,24.441931 L162.57541,16.689931 C162.57541,16.2223448 162.653508,15.7696552 162.809703,15.3310345 C162.965898,14.8915862 163.221793,14.510069 163.577387,14.184 C163.918026,13.8728276 164.295222,13.6742069 164.707312,13.5897931 C165.119402,13.5045517 165.553094,13.4615172 166.007556,13.4615172 L169.163038,13.4615172 C170.272192,13.4615172 171.11382,13.7172414 171.689583,14.2262069 C172.265346,14.736 172.552812,15.5577931 172.552812,16.689931 L172.552812,24.4204138 L172.552812,24.4204138 Z M170.506485,17.2849655 C170.506485,16.6336552 170.36109,16.1768276 170.06947,15.9153103 C169.77785,15.6529655 169.312586,15.5222069 168.67285,15.5222069 L166.498575,15.5222069 C165.858838,15.5222069 165.389421,15.6496552 165.091154,15.9045517 C164.792056,16.1594483 164.643338,16.6195862 164.643338,17.2849655 L164.643338,23.8468966 C164.643338,24.0877241 164.67491,24.3252414 164.738883,24.5586207 C164.802857,24.792 164.927481,25.0005517 165.112756,25.1851034 C165.311323,25.3828966 165.528169,25.4962759 165.762462,25.5252414 C165.996756,25.5533793 166.24185,25.5674483 166.498575,25.5674483 L168.67285,25.5674483 C169.284338,25.5674483 169.742124,25.4507586 170.047868,25.2173793 C170.353613,24.9831724 170.506485,24.5478621 170.506485,23.9106207 L170.506485,17.2849655 L170.506485,17.2849655 Z M176.903023,21.5743448 L176.903023,27.6273103 L174.834263,27.6273103 L174.834263,16.3506207 C174.834263,15.9252414 174.913192,15.5188966 175.069387,15.1291034 C175.225583,14.7393103 175.467353,14.4033103 175.793868,14.1202759 C176.135338,13.8372414 176.494256,13.6568276 176.87062,13.5790345 C177.246985,13.5004138 177.649105,13.4615172 178.07532,13.4615172 L184.088015,13.4615172 L184.088015,15.5222069 L178.629481,15.5222069 C178.146771,15.5222069 177.738004,15.6388966 177.404011,15.8722759 C177.070019,16.1056552 176.903023,16.4846897 176.903023,17.0085517 L176.903023,19.536 L184.088015,19.536 L184.088015,21.5743448 L176.903023,21.5743448 L176.903023,21.5743448 Z M187.712914,21.5743448 L187.712914,27.6273103 L185.644154,27.6273103 L185.644154,16.3506207 C185.644154,15.9252414 185.722252,15.5188966 185.878447,15.1291034 C186.035474,14.7393103 186.277244,14.4033103 186.603759,14.1202759 C186.944398,13.8372414 187.304147,13.6568276 187.680511,13.5790345 C188.056876,13.5004138 188.458996,13.4615172 188.885211,13.4615172 L194.897075,13.4615172 L194.897075,15.5222069 L189.439372,15.5222069 C188.955831,15.5222069 188.547064,15.6388966 188.213071,15.8722759 C187.879079,16.1056552 187.712914,16.4846897 187.712914,17.0085517 L187.712914,19.536 L194.897075,19.536 L194.897075,21.5743448 L187.712914,21.5743448 L187.712914,21.5743448 Z M196.454045,13.4615172 L198.521974,13.4615172 L198.521974,27.6273103 L196.454045,27.6273103 L196.454045,13.4615172 Z M204.598643,15.5222069 C204.356872,15.5222069 204.13338,15.5362759 203.926504,15.5644138 C203.720459,15.5925517 203.518568,15.6918621 203.319169,15.8615172 C203.120602,16.032 202.992654,16.2157241 202.935327,16.4135172 C202.878831,16.6121379 202.850583,16.8314483 202.850583,17.0722759 L202.850583,23.7624828 C202.850583,24.441931 202.989331,24.9128276 203.265996,25.1743448 C203.543492,25.4366897 204.02288,25.5674483 204.704989,25.5674483 L210.035575,25.5674483 L210.035575,27.6273103 L203.938135,27.6273103 C202.914556,27.6273103 202.132748,27.3475862 201.592711,26.7881379 C201.052673,26.2295172 200.781823,25.4474483 200.781823,24.441931 L200.781823,16.6055172 C200.781823,16.1238621 200.831673,15.6744828 200.931372,15.2565517 C201.031071,14.8386207 201.272842,14.4604138 201.656684,14.1202759 C202.011447,13.8091034 202.395289,13.6212414 202.80738,13.5575172 C203.220301,13.4937931 203.653162,13.4615172 204.108455,13.4615172 L210.057177,13.4615172 L210.057177,15.5222069 L204.598643,15.5222069 L204.598643,15.5222069 Z M215.17341,27.6273103 C214.690699,27.6273103 214.246207,27.5668966 213.840763,27.4468966 C213.43615,27.326069 213.08388,27.1423448 212.785613,26.8948966 C212.487346,26.6474483 212.256376,26.3321379 212.092703,25.9497931 C211.92903,25.5674483 211.847609,25.1213793 211.847609,24.6115862 L211.847609,16.6055172 C211.847609,15.6281379 212.125105,14.8601379 212.679267,14.3006897 C213.233429,13.7412414 214.001113,13.4615172 214.981489,13.4615172 L221.079759,13.4615172 L221.079759,15.5222069 L215.706801,15.5222069 C215.152639,15.5222069 214.714793,15.6388966 214.395756,15.8722759 C214.075887,16.1056552 213.915538,16.5202759 213.915538,17.1153103 L213.915538,19.536 L221.079759,19.536 L221.079759,21.5743448 L213.915538,21.5743448 L213.915538,23.9528276 C213.915538,24.5478621 214.075887,24.9657931 214.395756,25.2066207 C214.714793,25.4474483 215.159286,25.5674483 215.728402,25.5674483 L221.079759,25.5674483 L221.079759,27.6273103 L215.17341,27.6273103 L215.17341,27.6273103 Z" id="Fill-2"></path>
                            <path d="M36.7790526,35.1608276 L36.7790526,10.737931 C36.7790526,9.70841379 36.6494436,8.88910345 36.3910564,8.28165517 C36.1326692,7.67337931 35.7571353,7.19337931 35.2636241,6.84248276 C34.7709436,6.49241379 34.1602857,6.25737931 33.4316504,6.14068966 C32.7038459,6.024 31.8929586,5.96606897 31.0014812,5.96606897 C30.0144586,5.96606897 29.1221504,6.00082759 28.3237256,6.07117241 C27.5253008,6.14068966 26.832391,6.32772414 26.2458271,6.63227586 C25.6576015,6.93682759 25.2114474,7.42675862 24.9065338,8.1062069 C24.6007895,8.784 24.4487481,9.70841379 24.4487481,10.8777931 L24.4487481,35.1608276 L18.4593158,35.1608276 L18.4593158,10.8777931 C18.4593158,9.80193103 18.3421692,8.93627586 18.1078759,8.28165517 C17.8727519,7.6262069 17.5088496,7.12386207 17.0153383,6.77213793 C16.5226579,6.42206897 15.912,6.19944828 15.1833647,6.10593103 C14.4555602,6.01241379 13.6214098,5.96606897 12.6825752,5.96606897 L10.7093609,5.96606897 C9.20722556,5.96606897 8.0448985,6.38648276 7.2223797,7.22896552 C6.3998609,8.07144828 5.9886015,9.24082759 5.9886015,10.737931 L6.0592218,35.1608276 L0,35.1608276 L0,9.264 C0,6.40965517 0.727804511,4.152 2.18424436,2.49186207 C3.64068421,0.830068966 5.84819173,0 8.80759774,0 L14.3035188,0 C15.9942519,0 17.3792406,0.245793103 18.4593158,0.736551724 C19.5402218,1.22896552 20.5496767,2.19889655 21.4893421,3.64965517 C22.4290075,2.29241379 23.4617256,1.34565517 24.5891579,0.807724138 C25.7165902,0.268965517 27.1024098,0 28.7457857,0 L34.1719173,0 C35.5336429,0 36.6851692,0.151448276 37.6240038,0.456 C38.5628383,0.759724138 39.5025038,1.40358621 40.4421692,2.38675862 C41.4291917,3.41544828 42.0747444,4.47972414 42.3804887,5.57958621 C42.6845714,6.67862069 42.8374436,7.90675862 42.8374436,9.264 L42.8374436,35.1608276 L36.7790526,35.1608276" id="Fill-3"></path>
                            <path d="M77.6781767,26.3884138 C77.6781767,28.9613793 76.8440263,31.0667586 75.1765564,32.7045517 C73.5090865,34.3415172 71.3838308,35.1608276 68.8007895,35.1608276 L54.4274812,35.1608276 L54.4274812,47.6532414 L48.3674286,47.6532414 L48.3674286,9.33434483 C48.3674286,6.38648276 49.0960639,4.09406897 50.5516729,2.45627586 C52.0081128,0.819310345 54.2629774,0 57.3154361,0 L68.1660376,0 C71.2658534,0 73.6262331,0.736551724 75.2471767,2.21048276 C76.8672895,3.68441379 77.6781767,5.98924138 77.6781767,9.12413793 L77.6781767,26.3884138 L77.6781767,26.3884138 Z M71.6887444,10.3166897 C71.6887444,8.81958621 71.2309586,7.71972414 70.3153872,7.01875862 C69.398985,6.31613793 68.2358271,5.96606897 66.8275752,5.96606897 L59.429891,5.96606897 C57.8322105,5.96606897 56.5992632,6.35089655 55.730218,7.12386207 C54.8620038,7.89517241 54.4274812,9.10013793 54.4274812,10.737931 L54.4274812,27.6513103 C54.4274812,28.1668966 54.5795226,28.5401379 54.8852669,28.7743448 C55.1901805,29.0085517 55.5781767,29.1252414 56.047594,29.1252414 L67.1798459,29.1252414 C70.1857782,29.1252414 71.6887444,27.6273103 71.6887444,24.633931 L71.6887444,10.3166897 L71.6887444,10.3166897 Z" id="Fill-4"></path>
                        </g>
                    </g>
                </g>
            </g>
        </g>
    </g>
</svg>