<?xml version="1.0" encoding="UTF-8" standalone="no"?>
<svg width="271px" height="48px" viewBox="0 0 271 48" version="1.1" xmlns="http://www.w3.org/2000/svg" xmlns:xlink="http://www.w3.org/1999/xlink" xmlns:sketch="http://www.bohemiancoding.com/sketch/ns">
    <!-- Generator: Sketch 3.0 (7573) - http://www.bohemiancoding.com/sketch -->
    <title>nespresso</title>
    <description>Created with Sketch.</description>
    <defs></defs>
    <g id="desktop" stroke="none" stroke-width="1" fill="none" fill-rule="evenodd" sketch:type="MSPage">
        <g id="overview" sketch:type="MSArtboardGroup" transform="translate(-360.000000, -8320.000000)" fill="#B2B2B2">
            <g sketch:type="MSLayerGroup" id="clients">
                <g transform="translate(360.000000, 8191.000000)" sketch:type="MSShapeGroup">
                    <g id="Group" transform="translate(0.000000, 129.000000)">
                        <g id="nespresso">
                            <path d="M226.818738,24.4271186 C223.146192,21.271322 218.661473,20.2983051 215.533405,18.1570169 C213.300134,16.4908475 213.636405,14.3080678 214.749323,13.1341017 C217.40314,10.2109831 222.937985,11.5899661 224.238454,11.8877288 C225.875195,12.3587797 226.762555,12.864 228.310064,13.5571525 L228.310064,9.61627119 C221.696177,7.71742373 211.118915,5.9080678 206.953116,12.4572203 C205.406433,15.1590508 204.997454,20.0387797 209.433427,22.8903051 C213.889229,26.3698983 221.200445,28.0360678 222.0845,30.8501695 C222.66368,32.3869831 221.994442,33.8619661 220.922835,34.9073898 C216.975985,38.503322 210.636402,36.2391864 206.554878,34.4599322 L206.530091,38.3430508 C210.975979,40.2964068 216.567006,40.7910508 221.550762,39.7431864 C224.972963,38.9947119 228.781835,36.0374237 229.419677,32.3869831 C230.019512,28.7943051 229.242866,26.4349831 226.818738,24.4271186 L226.818738,24.4271186 Z M266.746622,39.3429153 C264.856232,39.3429153 263.326899,37.8305085 263.326899,35.9731525 C263.326899,34.1223051 264.856232,32.6155932 266.746622,32.6155932 C268.619662,32.6155932 270.152299,34.1223051 270.152299,35.9731525 C270.152299,37.8305085 268.619662,39.3429153 266.746622,39.3429153 L266.746622,39.3429153 Z M266.746622,32.2543729 C264.64472,32.2543729 262.952622,33.9270508 262.952622,35.9731525 C262.952622,38.0493559 264.64472,39.7090169 266.746622,39.7090169 C268.848524,39.7090169 270.547232,38.0493559 270.547232,35.9731525 C270.547232,33.9270508 268.848524,32.2543729 266.746622,32.2543729 L266.746622,32.2543729 Z M202.070159,24.4271186 C198.386872,21.271322 193.899674,20.2983051 190.754256,18.1570169 C188.527595,16.4908475 188.870476,14.3080678 189.998265,13.1341017 C192.654561,10.2109831 198.196841,11.5899661 199.47996,11.8877288 C201.126616,12.3587797 201.98671,12.864 203.547439,13.5571525 L203.547439,9.61627119 C196.944293,7.71742373 186.366204,5.9080678 182.191317,12.4572203 C180.654549,15.1590508 180.255485,20.0387797 184.674107,22.8903051 C189.119994,26.3698983 196.424601,28.0360678 197.332616,30.8501695 C197.89114,32.3869831 197.221902,33.8619661 196.164341,34.9073898 C192.224927,38.503322 185.884518,36.2391864 181.799689,34.4599322 L181.785643,38.3430508 C186.210875,40.2964068 191.815122,40.7910508 196.788137,39.7431864 C200.197945,38.9947119 204.01921,36.0374237 204.626482,32.3869831 C205.257713,28.7943051 204.484372,26.4349831 202.070159,24.4271186 L202.070159,24.4271186 Z M267.11429,35.7982373 L265.97989,35.7982373 L265.97989,34.5697627 L267.11429,34.5697627 C267.467912,34.5697627 267.810793,34.6820339 267.810793,35.1734237 C267.810793,35.5663729 267.578625,35.7982373 267.11429,35.7982373 L267.11429,35.7982373 Z M267.832274,36.0650847 L267.832274,36.0545085 C267.977689,36.007322 268.494902,35.8291525 268.494902,35.0505763 C268.494902,34.4054237 268.061137,33.9888814 267.197738,33.9888814 L265.269341,33.9888814 L265.269341,37.9297627 L265.97989,37.9297627 L265.97989,36.3107797 L266.999445,36.3107797 C267.655463,36.3107797 267.810793,36.6353898 267.810793,37.3659661 C267.810793,37.5538983 267.810793,37.7792542 267.912418,37.9297627 L268.653537,37.9297627 C268.494902,37.7792542 268.435415,37.3659661 268.435415,36.9054915 C268.435415,36.2936949 268.089229,36.0992542 267.832274,36.0650847 L267.832274,36.0650847 Z M247.207357,35.815322 L247.093338,35.815322 C246.201848,35.815322 239.667277,36.0992542 239.720155,23.2621017 C239.772207,11.3548475 246.115095,11.6965424 247.162741,11.6965424 C248.220302,11.6965424 254.556579,11.3548475 254.611936,23.2621017 C254.649942,36.0992542 248.119503,35.815322 247.207357,35.815322 L247.207357,35.815322 Z M247.15861,7.8199322 C245.043488,7.80691525 231.386079,8.02820339 231.323287,23.8665763 C231.323287,39.5861695 244.814625,40.2142373 247.155305,40.1971525 C249.495985,40.2142373 262.993933,39.5861695 262.952622,23.8665763 C262.935271,8.02820339 249.281994,7.80691525 247.15861,7.8199322 L247.15861,7.8199322 Z M93.841186,24.4271186 C90.1479848,21.271322 85.6715274,20.2983051 82.5112378,18.1570169 C80.2953171,16.4908475 80.6456341,14.3080678 81.7692927,13.1341017 C84.4189787,10.2109831 89.9678689,11.5899661 91.2509878,11.8877288 C92.8844238,12.3587797 93.7651738,12.864 95.3225976,13.5571525 L95.3225976,9.61627119 C88.7128415,7.71742373 78.1314482,5.9080678 73.9524299,12.4572203 C72.4264024,15.1590508 72.0240335,20.0387797 76.4426555,22.8903051 C80.8885427,26.3698983 88.1923232,28.0360678 89.1011646,30.8501695 C89.6629939,32.3869831 88.9937561,33.8619661 87.9386738,34.9073898 C83.9852134,38.503322 77.6596768,36.2391864 73.5707165,34.4599322 L73.5566707,38.3430508 C77.9752927,40.2964068 83.5795396,40.7910508 88.556686,39.7431864 C91.9689726,38.9947119 95.783628,36.0374237 96.3908994,32.3869831 C97.0221311,28.7943051 96.2520945,26.4349831 93.841186,24.4271186 L93.841186,24.4271186 Z M71.2713476,11.8055593 L71.2961341,8.29098305 L49.4674146,8.29098305 L49.4674146,39.6748475 L71.2961341,39.6748475 L71.2713476,36.1610847 C67.0923293,36.2635932 61.8417043,36.919322 57.5379268,36.5092881 L57.5379268,25.2357966 C61.0196159,25.0584407 65.258122,25.1170169 68.4969024,25.4074576 L68.4969024,21.6846102 C65.209375,22.0913898 61.0510122,22.0604746 57.5379268,21.8554576 L57.5379268,11.4874576 C61.8417043,11.0440678 67.0923293,11.7339661 71.2713476,11.8055593 L71.2713476,11.8055593 Z M47.9174268,44.7905085 C45.0281372,43.7312542 40.8706006,40.5730169 38.4811738,37.6734915 C35.3869817,34.183322 27.9757927,24.3652881 27.9757927,24.3652881 C24.1644421,19.5335593 19.0699726,11.4947797 14.0209451,7.44081356 L14.0209451,39.6065085 L18.5321037,39.6065085 L18.5321037,23.3719322 C21.699003,27.3502373 25.4095549,32.4414915 28.1873049,35.6485424 C29.4084573,37.0893559 32.5811402,40.4631864 33.4726311,41.204339 C39.261125,46.7609492 49.9077896,49.2634576 58.7830396,46.2077288 L58.7830396,45.9099661 C55.7309848,46.5518644 51.794875,46.3134915 47.9174268,44.7905085 L47.9174268,44.7905085 Z M20.4778506,10.183322 C23.5712165,13.659661 30.9757957,23.4809492 30.9757957,23.4809492 C34.7978872,28.3167458 39.8849207,36.3620339 44.9314695,40.4257627 L44.9314695,8.24379661 L40.4260945,8.24379661 L40.4260945,24.4677966 C37.2633262,20.5065763 33.5453384,15.4218305 30.7717195,12.2050169 C29.546436,10.7568814 26.3877988,7.38955932 25.4896982,6.65247458 C19.6904634,1.07877966 9.05371341,-1.4139661 0.179289634,1.63525424 L0.179289634,1.93952542 C3.22803963,1.30413559 7.17075915,1.53681356 11.0341616,3.05979661 C13.9366707,4.11498305 18.0884238,7.29111864 20.4778506,10.183322 L20.4778506,10.183322 Z M116.575442,22.4330847 C114.688357,24.6150508 110.520079,24.5906441 107.745634,24.4059661 L107.76629,11.8226441 C107.76629,11.8226441 114.948616,10.8390508 116.852226,14.0420339 C117.937878,15.9644746 118.194832,20.2983051 116.575442,22.4330847 L116.575442,22.4330847 Z M115.666601,8.29098305 L99.7065183,8.29098305 L99.7065183,39.6748475 L107.786945,39.6748475 L107.786945,28.1768136 C107.786945,28.1768136 119.318491,28.8016271 122.575448,24.5637966 C125.009491,21.8277966 125.144991,17.4703729 124.138655,14.0932881 C122.810921,10.2484068 119.918326,8.28122034 115.666601,8.29098305 L115.666601,8.29098305 Z M144.021628,21.1826441 C142.113887,23.4402712 138.171168,23.272678 135.441338,23.272678 L135.441338,11.7640678 C135.441338,11.7640678 142.384887,10.7397966 144.291802,14.0216949 C145.284091,15.8587119 145.394805,19.3350508 144.021628,21.1826441 L144.021628,21.1826441 Z M154.037061,38.0322712 L153.058817,36.1985085 C150.94039,32.3048136 149.240857,29.0375593 147.389299,24.816 C147.593375,24.6825763 147.538018,24.7378983 148.093238,24.4848814 C151.044494,23.1050847 153.000155,20.592 152.944799,16.251661 C152.809299,10.9171525 147.863549,8.28122034 143.549857,8.29098305 L127.381567,8.29098305 L127.381567,39.6748475 L135.507436,39.6748475 L135.507436,26.7010169 L140.126829,26.7010169 C141.677643,29.2352542 144.809015,36.4303729 145.290701,37.5644746 L146.258204,39.6748475 L154.921942,39.6748475 L154.134555,38.2202034 L154.037061,38.0322712 L154.037061,38.0322712 Z" id="Fill-1"></path>
                            <path d="M155.372232,39.6748475 L177.183601,39.6748475 L177.183601,36.1610847 C172.987232,36.2635932 167.732476,36.919322 163.442744,36.5092881 L163.442744,25.2357966 C166.928564,25.0584407 171.172854,25.1170169 174.423201,25.4074576 L174.423201,21.6846102 C171.096841,22.0913898 166.963265,22.0604746 163.436134,21.8554576 C163.436134,21.1826441 163.442744,11.4874576 163.442744,11.4874576 C167.732476,11.0440678 172.987232,11.7339661 177.183601,11.8055593 L177.183601,8.29098305 L155.372232,8.29098305 L155.372232,39.6748475" id="Fill-2"></path>
                        </g>
                    </g>
                </g>
            </g>
        </g>
    </g>
</svg>