<?xml version="1.0" encoding="UTF-8" standalone="no"?>
<svg width="221px" height="50px" viewBox="0 0 221 50" version="1.1" xmlns="http://www.w3.org/2000/svg" xmlns:xlink="http://www.w3.org/1999/xlink" xmlns:sketch="http://www.bohemiancoding.com/sketch/ns">
    <!-- Generator: Sketch 3.0 (7573) - http://www.bohemiancoding.com/sketch -->
    <title>roeland</title>
    <description>Created with Sketch.</description>
    <defs></defs>
    <g id="desktop" stroke="none" stroke-width="1" fill="none" fill-rule="evenodd" sketch:type="MSPage">
        <g id="overview" sketch:type="MSArtboardGroup" transform="translate(-1443.000000, -8320.000000)" fill="#B2B2B2">
            <g sketch:type="MSLayerGroup" id="clients">
                <g transform="translate(360.000000, 8191.000000)" sketch:type="MSShapeGroup">
                    <g id="Group" transform="translate(0.000000, 129.000000)">
                        <g id="roeland" transform="translate(1083.000000, 0.000000)">
                            <g id="Group" transform="translate(54.000000, 0.000000)">
                                <path d="M18.236871,11.3662872 C18.236871,8.23073375 15.4211481,6.63883739 11.0860979,6.63883739 L7.683968,6.63883739 L7.683968,16.3397573 C8.4448432,16.3759368 9.47469022,16.4193521 10.9504004,16.4193521 C15.1570226,16.4193521 18.236871,14.5838474 18.236871,11.3662872 M0.0388683656,26.8438613 L3.61304331,26.8438613 L3.61304331,6.63883739 L0.0388683656,6.63883739 L0.0388683656,3.34409432 L11.3114527,3.34409432 C17.9315516,3.34409432 22.3998761,6.15644455 22.3998761,11.245689 C22.3998761,14.8250438 19.9040116,17.437201 16.4001085,18.5708242 L21.8643556,26.8438613 L25.3076794,26.8438613 L25.3076794,30.1434283 L19.0922498,30.1434283 L12.4285338,19.5090782 C11.8469731,19.5500816 11.2678356,19.593497 10.6862749,19.593497 C9.61038771,19.593497 8.4448432,19.5500816 7.683968,19.5090782 L7.683968,26.8438613 L11.4471502,26.8438613 L11.4471502,30.1434283 L0.0388683656,30.1434283 L0.0388683656,26.8438613" id="Fill-1"></path>
                                <path d="M45.4248323,21.3831744 C45.4248323,17.8014076 42.9265445,15.2399017 39.3426769,15.2399017 C35.7248849,15.2399017 33.2169045,17.8014076 33.2169045,21.3831744 C33.2169045,24.9745891 35.7248849,27.4975036 39.3426769,27.4975036 C42.9265445,27.4975036 45.4248323,24.9745891 45.4248323,21.3831744 M29.2841005,21.3831744 C29.2841005,16.4579436 33.2169045,12.2635379 39.3426769,12.2635379 C45.478142,12.2635379 49.410946,16.4193521 49.410946,21.3831744 C49.410946,26.2698138 45.4248323,30.4642196 39.3426769,30.4642196 C33.1732875,30.4642196 29.2841005,26.3084053 29.2841005,21.3831744" id="Fill-2"></path>
                                <path d="M58.0010817,19.8756968 L68.7744931,19.8756968 C68.5951786,17.0681705 66.7196454,15.1530709 63.4507898,15.1530709 C60.8579985,15.1530709 58.4857156,16.696728 58.0010817,19.8756968 M58.0010817,22.487854 C58.5390253,25.8284244 61.2166276,27.4565002 64.9798098,27.4565002 C67.4369036,27.4565002 69.5353683,26.7594426 71.8228403,25.5799921 L71.5054051,28.7927284 C69.4917513,29.9384114 67.0346575,30.4642196 64.3885564,30.4642196 C58.1803963,30.4642196 53.9737741,26.800446 53.9737741,21.4193539 C53.9737741,16.494123 57.6860697,12.2635379 63.5452934,12.2635379 C69.4917513,12.2635379 72.6224862,16.1299164 72.6224862,20.6137578 C72.6224862,21.2553403 72.5279826,21.9548099 72.4431717,22.487854 L58.0010817,22.487854" id="Fill-3"></path>
                                <path d="M77.810492,27.2056559 L80.941227,27.2056559 L80.941227,3.34409432 L77.810492,3.34409432 L77.810492,0.329139092 L84.78922,0.329139092 L84.78922,27.2056559 L87.8787611,27.2056559 L87.8787611,30.1434283 L77.810492,30.1434283 L77.810492,27.2056559" id="Fill-4"></path>
                                <path d="M106.12765,25.7391817 L106.12765,22.8882401 C104.831255,22.5626249 103.17623,22.285249 101.436394,22.285249 C98.7054822,22.285249 97.186155,23.4622875 97.186155,25.1747821 C97.186155,26.7570306 98.4849738,27.8207068 100.719136,27.8207068 C102.773984,27.8207068 104.65194,26.9234561 106.12765,25.7391817 M93.296968,25.452158 C93.296968,22.2394217 96.4277029,20.1627205 100.845141,20.1627205 C102.858795,20.1627205 105.09538,20.5751664 106.12765,20.8549543 L106.12765,18.8602599 C106.12765,17.842411 105.810215,17.0247551 105.274695,16.4193521 C104.472626,15.5221015 103.132613,15.0710642 101.25708,15.0710642 C100.043072,15.0710642 99.3282368,15.3170845 98.7466761,15.6016963 C98.8847968,15.8863081 98.9696077,16.2553386 98.9696077,16.5833657 C98.9696077,17.7169889 98.0318411,18.5684122 96.7330223,18.5684122 C95.3954328,18.5684122 94.4576662,17.7169889 94.4576662,16.494123 C94.4576662,14.4222458 96.9559539,12.2635379 101.879834,12.2635379 C104.872448,12.2635379 107.065417,13.0763698 108.361813,14.4608372 C109.343196,15.5221015 109.837523,16.896921 109.837523,18.4936413 L109.837523,27.203244 L112.83256,27.203244 L112.83256,30.1434283 L106.212461,30.1434283 L106.212461,28.0233118 C104.65194,29.3691878 102.194846,30.4642196 99.6020549,30.4642196 C96.0690739,30.4642196 93.296968,28.6335387 93.296968,25.452158" id="Fill-5"></path>
                                <path d="M124.606741,15.6402877 C126.44108,13.8530222 128.854557,12.2635379 131.629086,12.2635379 C134.042562,12.2635379 135.70001,13.1149612 136.688663,14.4970167 C137.313841,15.4786861 137.67247,16.696728 137.67247,18.1656142 L137.67247,27.203244 L140.662661,27.203244 L140.662661,30.1434283 L130.955444,30.1434283 L130.955444,27.203244 L133.822054,27.203244 L133.822054,18.9398547 C133.822054,18.0908433 133.686356,17.3913737 133.381037,16.8583296 C132.84067,15.9248995 131.905327,15.4786861 130.509581,15.4786861 C128.41354,15.4786861 126.402309,16.6219571 124.747284,18.1294347 L124.747284,27.203244 L127.601778,27.203244 L127.601778,30.1434283 L117.943025,30.1434283 L117.943025,27.203244 L120.938062,27.203244 L120.938062,15.6016963 L117.943025,15.6016963 L117.943025,12.5867411 L124.606741,12.5867411 L124.606741,15.6402877" id="Fill-6"></path>
                                <path d="M159.776622,25.1747821 L159.776622,17.0247551 C158.385723,16.0479097 156.740391,15.3170845 154.494113,15.3170845 C151.196179,15.3170845 148.644582,17.7169889 148.600964,21.4193539 C148.600964,25.0879514 151.142869,27.4130849 154.409302,27.4130849 C156.60227,27.4130849 158.342106,26.4772428 159.776622,25.1747821 M144.658468,21.4675932 C144.658468,16.4579436 148.547655,12.2635379 154.053096,12.2635379 C156.466573,12.2635379 158.48265,13.0763698 159.776622,14.1714015 L159.776622,3.34409432 L156.466573,3.34409432 L156.466573,0.329139092 L163.624615,0.329139092 L163.624615,27.203244 L166.619653,27.203244 L166.619653,30.1434283 L159.829932,30.1434283 L159.829932,27.9003016 C158.300912,29.3715998 156.381762,30.4642196 153.694467,30.4642196 C148.600964,30.4642196 144.658468,26.800446 144.658468,21.4675932" id="Fill-7"></path>
                                <path d="M3.8359749,48.6673132 C1.4006896,48.6673132 -0.254335138,47.1743074 -0.254335138,45.1579053 C-0.254335138,43.1366794 1.4006896,41.6412616 3.8359749,41.6412616 C4.7010464,41.6412616 5.50069232,41.8703982 6.17433343,42.2346048 L5.63881298,43.5684209 C5.09117668,43.2910451 4.46842213,43.1125597 3.85536026,43.1125597 C2.46446099,43.1125597 1.58969682,43.8964481 1.58969682,45.1579053 C1.58969682,46.4217746 2.46446099,47.198427 3.85536026,47.198427 C4.46842213,47.198427 5.16144859,47.0151178 5.72120074,46.6991504 L6.24945168,48.0329666 C5.59761909,48.4285288 4.68893055,48.6673132 3.8359749,48.6673132" id="Fill-11"></path>
                                <path d="M12.3534155,43.1125597 C12.0892901,43.1125597 11.931784,43.1222076 11.6894671,43.160799 L11.6894671,45.0373071 C11.9099755,45.0566028 12.0262877,45.0662507 12.2371034,45.0662507 C13.0585578,45.0662507 13.5868088,44.7020441 13.5868088,44.0146343 C13.5868088,43.4478227 13.1021749,43.1125597 12.3534155,43.1125597 M13.8921281,48.5515389 L12.6151178,46.3397678 C12.5206142,46.3445917 12.4261106,46.3445917 12.3219143,46.3445917 C12.0674815,46.3445917 11.931784,46.3397678 11.6894671,46.325296 L11.6894671,48.5515389 L9.94963144,48.5515389 L9.94963144,41.8173349 C10.5820787,41.7498 11.2775283,41.7063846 12.1522925,41.7063846 C14.4712656,41.7063846 15.3896469,42.7145856 15.3896469,43.9615711 C15.3896469,44.7695791 14.9147056,45.4883444 14.1029439,45.9297339 L15.8621649,48.5515389 L13.8921281,48.5515389" id="Fill-12"></path>
                                <path d="M19.3321436,48.5515389 L19.3321436,41.7498 L24.0645935,41.7498 L24.0645935,43.2042144 L21.0622866,43.2042144 L21.0622866,44.4126084 L23.8028912,44.4126084 L23.8028912,45.787428 L21.0622866,45.787428 L21.0622866,47.1164203 L24.0645935,47.1164203 L24.0645935,48.5515389 L19.3321436,48.5515389" id="Fill-13"></path>
                                <path d="M30.8446216,44.4825554 L30.1079781,46.1130432 L31.5836883,46.1130432 L30.8446216,44.4825554 L30.8446216,44.4825554 L30.8446216,44.4825554 L30.8446216,44.4825554 Z M32.7007694,48.5515389 L32.1313246,47.3214372 L29.5579187,47.3214372 L28.990897,48.5515389 L27.2292528,48.5515389 L30.750118,41.6919128 L30.9827423,41.6919128 L34.5036075,48.5515389 L32.7007694,48.5515389 L32.7007694,48.5515389 Z" id="Fill-14"></path>
                                <path d="M40.573647,43.2042144 L40.573647,48.5515389 L38.8362345,48.5515389 L38.8362345,43.2042144 L36.6020723,43.2042144 L36.6020723,41.7498 L42.8078092,41.7498 L42.8078092,43.2042144 L40.573647,43.2042144" id="Fill-15"></path>
                                <path d="M46.4886036,41.7498 L48.2187466,41.7498 L48.2187466,48.5515389 L46.4886036,48.5515389 L46.4886036,48.5515389 L46.4886036,41.7498 L46.4886036,41.7498 Z" id="Fill-16"></path>
                                <path d="M52.45687,48.5515389 L52.45687,41.7498 L57.1796273,41.7498 L57.1796273,43.2042144 L54.187013,43.2042144 L54.187013,44.4126084 L56.9276177,44.4126084 L56.9276177,45.787428 L54.187013,45.787428 L54.187013,47.1164203 L57.1796273,47.1164203 L57.1796273,48.5515389 L52.45687,48.5515389" id="Fill-17"></path>
                                <path d="M62.9976571,43.2042144 L62.9976571,44.7020441 L65.5710631,44.7020441 L65.5710631,46.0840996 L62.9976571,46.0840996 L62.9976571,48.5515389 L61.2699373,48.5515389 L61.2699373,41.7498 L66.0023873,41.7498 L66.0023873,43.2042144 L62.9976571,43.2042144" id="Fill-18"></path>
                                <path d="M77.7038726,43.2042144 L77.7038726,48.5515389 L75.9761527,48.5515389 L75.9761527,43.2042144 L73.7298747,43.2042144 L73.7298747,41.7498 L79.9501506,41.7498 L79.9501506,43.2042144 L77.7038726,43.2042144" id="Fill-19"></path>
                                <path d="M85.6130977,44.4825554 L84.874031,46.1130432 L86.3497412,46.1130432 L85.6130977,44.4825554 L85.6130977,44.4825554 L85.6130977,44.4825554 L85.6130977,44.4825554 Z M87.4571296,48.5515389 L86.8998006,47.3214372 L84.3263947,47.3214372 L83.7569499,48.5515389 L81.9977288,48.5515389 L85.5161709,41.6919128 L85.7487952,41.6919128 L89.2696604,48.5515389 L87.4571296,48.5515389 L87.4571296,48.5515389 Z" id="Fill-20"></path>
                                <path d="M92.538516,48.5515389 L92.538516,41.7498 L94.268659,41.7498 L94.268659,47.1164203 L97.2612732,47.1164203 L97.2612732,48.5515389 L92.538516,48.5515389" id="Fill-21"></path>
                                <path d="M100.81364,48.5515389 L100.81364,41.7498 L105.54609,41.7498 L105.54609,43.2042144 L102.553475,43.2042144 L102.553475,44.4126084 L105.284387,44.4126084 L105.284387,45.787428 L102.553475,45.787428 L102.553475,47.1164203 L105.54609,47.1164203 L105.54609,48.5515389 L100.81364,48.5515389" id="Fill-22"></path>
                                <path d="M115.868791,48.6866089 L111.366543,45.0011277 L111.366543,48.5515389 L109.626707,48.5515389 L109.626707,41.6581453 L109.869024,41.6195539 L114.30827,45.2785035 L114.30827,41.7498 L116.048106,41.7498 L116.048106,48.6576654 L115.868791,48.6866089" id="Fill-23"></path>
                                <path d="M124.870866,48.5515389 L124.870866,41.7498 L126.598586,41.7498 L126.598586,47.1164203 L129.603316,47.1164203 L129.603316,48.5515389 L124.870866,48.5515389" id="Fill-24"></path>
                                <path d="M133.158106,48.5515389 L133.158106,41.7498 L137.880863,41.7498 L137.880863,43.2042144 L134.888249,43.2042144 L134.888249,44.4126084 L137.616737,44.4126084 L137.616737,45.787428 L134.888249,45.787428 L134.888249,47.1164203 L137.880863,47.1164203 L137.880863,48.5515389 L133.158106,48.5515389" id="Fill-25"></path>
                                <path d="M144.387073,43.1125597 C144.122947,43.1125597 143.950902,43.1222076 143.711009,43.160799 L143.711009,45.0373071 C143.93394,45.0566028 144.057522,45.0662507 144.258645,45.0662507 C145.082522,45.0662507 145.618043,44.7020441 145.618043,44.0146343 C145.618043,43.4478227 145.121293,43.1125597 144.387073,43.1125597 M145.923362,48.5515389 L144.651198,46.3397678 C144.542156,46.3445917 144.450075,46.3445917 144.353148,46.3445917 C144.098716,46.3445917 143.950902,46.3397678 143.711009,46.325296 L143.711009,48.5515389 L141.973596,48.5515389 L141.973596,41.8173349 C142.606043,41.7498 143.29907,41.7063846 144.176257,41.7063846 C146.504923,41.7063846 147.423304,42.7145856 147.423304,43.9615711 C147.423304,44.7695791 146.948363,45.4883444 146.134178,45.9297339 L147.883706,48.5515389 L145.923362,48.5515389" id="Fill-26"></path>
                                <path d="M151.363378,48.5515389 L151.363378,41.7498 L156.098251,41.7498 L156.098251,43.2042144 L153.091097,43.2042144 L153.091097,44.4126084 L155.822009,44.4126084 L155.822009,45.787428 L153.091097,45.787428 L153.091097,47.1164203 L156.098251,47.1164203 L156.098251,48.5515389 L151.363378,48.5515389" id="Fill-27"></path>
                                <path d="M166.418529,48.6866089 L161.906588,45.0011277 L161.906588,48.5515389 L160.176445,48.5515389 L160.176445,41.6581453 L160.409069,41.6195539 L164.858008,45.2785035 L164.858008,41.7498 L166.585728,41.7498 L166.585728,48.6576654 L166.418529,48.6866089" id="Fill-28"></path>
                            </g>
                            <path d="M38.3092929,18.5284541 C38.3092929,8.86693982 29.8935596,1.03622432 19.5123789,1.03622432 L0,1.03622432 L0,36.0229421 L12.1201657,36.0229421 C16.0732625,45.7324422 24.6122179,48.586185 30.4053196,49.0716883 C32.2675268,49.2258073 32.4096207,47.9053514 30.6834018,46.3822262 C25.8050296,42.0674573 24.0011031,38.1309294 23.3400334,35.6588147 C31.8856495,34.0143136 38.3092929,26.9694359 38.3092929,18.5284541" id="Imported-Layers"></path>
                        </g>
                    </g>
                </g>
            </g>
        </g>
    </g>
</svg>