<?xml version="1.0" encoding="UTF-8" standalone="no"?>
<svg width="262px" height="57px" viewBox="0 0 262 57" version="1.1" xmlns="http://www.w3.org/2000/svg" xmlns:xlink="http://www.w3.org/1999/xlink" xmlns:sketch="http://www.bohemiancoding.com/sketch/ns">
    <!-- Generator: Sketch 3.0 (7573) - http://www.bohemiancoding.com/sketch -->
    <title>logo</title>
    <description>Created with Sketch.</description>
    <defs></defs>
    <g id="desktop" stroke="none" stroke-width="1" fill="none" fill-rule="evenodd" sketch:type="MSPage">
        <g id="overview" sketch:type="MSArtboardGroup" transform="translate(-244.000000, -59.000000)">
            <g sketch:type="MSLayerGroup" id="top">
                <g transform="translate(204.000000, 0.000000)" sketch:type="MSShapeGroup">
                    <g id="nav" transform="translate(0.000000, 40.000000)">
                        <g id="logo" transform="translate(40.000000, 19.000000)">
                            <path d="M56.6346924,17.375771 C53.5549642,10.3621748 47.8417109,4.93217007 40.5488721,2.08477537 C33.2560333,-0.762619325 25.2415901,-0.690986754 17.9831765,2.2856024 C10.7247629,5.26219156 5.10551676,10.7804578 2.15951707,17.8260329 C0.718956328,21.2669546 0,24.8741662 0,28.4813778 C0,32.2587168 0.789130703,36.0373349 2.36474402,39.6240801 C5.44447223,46.6363971 11.1577256,52.067681 18.4518884,54.9150757 C25.7447272,57.7624704 33.7591704,57.6908378 41.017584,54.7155278 C48.2746735,51.7389386 53.8965678,46.2193932 56.8425675,39.1738182 C59.7885672,32.1295223 59.7157447,24.388088 56.6346924,17.375771 L56.6346924,17.375771 Z M50.3969791,35.8646538 C48.1993617,41.0556022 44.0075602,45.121249 38.5898041,47.3156509 C33.1733864,49.5100528 27.1948497,49.5611448 21.7570179,47.4638178 L21.7556795,47.4638178 C21.4478525,47.3450288 21.1601011,47.1981393 20.8603043,47.0665774 C22.6349942,44.1594419 27.676666,35.8978636 27.8345946,35.639849 C28.1852498,35.5044551 42.1003709,30.0810381 42.1003709,30.0810381 L44.6459668,25.9106527 C44.9992987,25.3269264 45.177303,24.7802419 45.177303,24.274431 C45.177303,23.3943711 44.6406133,22.6407639 43.5806175,22.0506512 C41.9089828,21.1233312 40.5103773,21.4745888 39.5360377,23.0686595 C39.5360377,23.0686595 38.17223,25.3013804 37.9995792,25.5836638 C37.6756916,25.7101165 32.8374534,27.5966891 32.3917734,27.7716792 C31.9808912,27.5596474 28.1183309,25.5708908 27.6753276,25.3435313 C27.6070703,24.8517707 26.9124518,19.7285193 26.866947,19.3964212 C27.0395978,19.1128605 28.4007287,16.8826942 28.4007287,16.8826942 C28.7607525,16.2951361 28.9374185,15.75867 28.9374185,15.2554137 C28.9374185,15.0663732 28.9133277,14.8837193 28.8638077,14.7036199 C28.6831266,14.0534741 28.1691892,13.4876301 27.3353794,13.0226928 C25.6637447,12.0953728 24.2651392,12.4491849 23.292138,14.0432557 L20.7478805,18.2187503 C20.7478805,18.2187503 22.6738072,32.4414891 22.7233272,32.8016877 C22.5694137,33.0545932 17.708423,41.0211151 15.8507537,44.0636444 C8.76537796,38.370717 5.94675287,28.7615869 9.60052613,20.1295916 C14.1456595,9.39643724 26.9954313,4.19271587 38.2431641,8.52915035 C49.4895585,12.8681394 54.9421125,25.1302222 50.3969791,35.8646538 L50.3969791,35.8646538 Z" id="Fill-1" fill="#84BF41"></path>
                            <path d="M207.819797,13 L199.325695,13 L185,46 L194.915958,46 L197.340388,39.7356495 L209.343498,39.7356495 L211.908129,46 L222,46 L207.819797,13 L207.819797,13 Z M207,33 L200,33 L203.538781,24 L207,33 L207,33 Z" id="Fill-2" fill="#123E4D"></path>
                            <path d="M171.633663,28.2563328 L186.252434,13 L174.833402,13 L163.826774,25.2308854 L163.826774,13 L155,13 L155,46 L163.826774,46 L163.826774,32.1956774 L175.234023,46 L187,46 L171.633663,28.2563328" id="Fill-3" fill="#123E4D"></path>
                            <path d="M138.353698,20.1024557 C138.730473,19.8814649 139.161834,19.7289684 139.634467,19.6501355 C141.116272,19.4045902 142.56213,19.5131471 144.134467,20.2226436 C145.155621,20.6827179 145.99571,21.3120892 146.626775,22.0900799 L147.034172,22.5928015 L153,16.4813093 L152.573964,16.1013603 C151.054882,14.7521538 149.258876,13.718279 147.239201,13.0268753 C143.560651,11.7707174 139.971302,11.7229007 136.511095,12.5797244 C134.92145,12.9738892 133.468935,13.6058451 132.196154,14.4600842 C130.912722,15.3233696 129.859615,16.442539 129.070118,17.7852839 C128.271302,19.1383675 127.866568,20.7796436 127.866568,22.6612957 C127.866568,24.1953074 128.130178,25.5225441 128.648077,26.6068203 C129.161982,27.6859271 129.85429,28.618999 130.703698,29.378897 C131.542456,30.1284562 132.509024,30.7500734 133.572781,31.2282405 C134.600592,31.6896071 135.673669,32.0954029 136.762722,32.437874 C137.851775,32.7712986 138.825,33.081461 139.682396,33.3670689 C140.497189,33.6410457 141.185503,33.9447464 141.726036,34.270417 C142.239941,34.5818717 142.635355,34.9230504 142.901627,35.2849066 C143.146598,35.6196235 143.26642,36.0215424 143.26642,36.5139252 C143.26642,37.0567095 143.161243,37.5219531 142.957544,37.894148 C142.749852,38.2715123 142.479586,38.5648743 142.133432,38.789742 C141.76997,39.0249485 141.337278,39.1968302 140.847337,39.30151 C139.163166,39.6633662 137.324556,39.4359138 135.521893,38.5506585 C134.267751,37.9342107 133.24926,37.1626816 132.493047,36.2580412 L132.092308,35.7772894 L126,41.7957329 L126.383432,42.1821436 C127.906509,43.7252017 129.842308,44.9283734 132.13358,45.7580579 C134.411538,46.5825731 136.8,47 139.233728,47 C140.907249,47 142.555473,46.7777169 144.130473,46.3409048 C145.724112,45.8989234 147.161982,45.208812 148.404142,44.2899558 C149.656953,43.3607608 150.667456,42.1705125 151.406361,40.7502271 C152.147929,39.3273569 152.524704,37.6266329 152.524704,35.6932871 C152.524704,33.9912708 152.165237,32.5399691 151.459615,31.380737 C150.767308,30.2447671 149.880621,29.2780942 148.822189,28.5091499 C147.783728,27.7518366 146.614793,27.1366811 145.346006,26.6778992 C144.119822,26.2359177 142.938905,25.8301219 141.800592,25.461804 C141.028402,25.2227204 140.332101,24.9900986 139.713018,24.7639385 C139.129882,24.5519942 138.617308,24.3154953 138.195266,24.0609037 C137.818491,23.8347436 137.53358,23.5711055 137.345858,23.2816206 C137.168787,23.0063514 137.079586,22.6444953 137.079586,22.2050985 C137.079586,21.6778224 137.19142,21.2681495 137.421746,20.950233 C137.674704,20.6013003 137.979586,20.3234464 138.353698,20.1024557" id="Fill-4" fill="#123E4D"></path>
                            <path d="M103.324373,13 L89,46 L98.914635,46 L101.339065,39.7356495 L113.343498,39.7356495 L115.908129,46 L126,46 L111.818474,13 L103.324373,13 L103.324373,13 Z M111,33 L104,33 L107.538781,24 L111,33 L111,33 Z" id="Fill-5" fill="#123E4D"></path>
                            <path d="M86.3395268,13 L79.6559973,24.2607483 L72.9711513,13 L62,13 L74.8233723,32.0959795 L74.8233723,46 L83.8843796,46 L83.8843796,32.0998141 L97,13 L86.3395268,13" id="Fill-6" fill="#123E4D"></path>
                            <path d="M230,43.5006224 C230,44.2138412 229.757188,44.8100573 229.270355,45.2855365 C228.783523,45.7610157 228.201256,46 227.524764,46 C227.178062,46 226.851897,45.9352751 226.546267,45.8083147 C226.241846,45.6801095 225.973665,45.5070948 225.742933,45.2855365 C225.510993,45.0639781 225.32979,44.8050784 225.198115,44.5075927 C225.065233,44.210107 225,43.8827483 225,43.5255166 C225,43.1857107 225.065233,42.8620861 225.198115,42.5558875 C225.32979,42.2496888 225.510993,41.9820762 225.742933,41.7530495 C225.973665,41.5240229 226.241846,41.3410505 226.546267,41.2041324 C226.851897,41.068459 227.178062,41 227.524764,41 C228.201256,41 228.783523,41.2389843 229.270355,41.7144635 C229.757188,42.1911875 230,42.7861588 230,43.5006224" id="Fill-7" fill="#84BF41"></path>
                            <path d="M246,39.1579044 L246,39.6864009 C246,39.862996 245.98947,40.0292791 245.972358,40.187828 L236.234487,40.187828 C236.271343,40.5577755 236.383227,40.8929196 236.571455,41.1919713 C236.761,41.4923119 237.003197,41.7514041 237.300677,41.9705368 C237.596841,42.1922475 237.929861,42.3636866 238.29842,42.4861431 C238.66698,42.6098886 239.048703,42.6704723 239.444904,42.6704723 C240.146484,42.6704723 240.738812,42.5441488 241.22452,42.2876347 C241.710229,42.0336986 242.105115,41.7024215 242.411809,41.2976706 L245.486649,43.1989688 C244.857465,44.0974128 244.025574,44.7883252 242.990974,45.2729951 C241.957691,45.757665 240.75724,46 239.390936,46 C238.383979,46 237.430989,45.8453181 236.530651,45.5372433 C235.631628,45.2291686 234.845807,44.7805911 234.170553,44.1902219 C233.496615,43.6011417 232.966153,42.8741368 232.580481,42.0104963 C232.193494,41.1481447 232,40.1620477 232,39.0522051 C232,37.978455 232.188229,37.0052481 232.566002,36.1338735 C232.943776,35.2612098 233.45581,34.5226038 234.103422,33.9141884 C234.751034,33.307062 235.515795,32.8365712 236.39639,32.5014271 C237.276984,32.167572 238.23129,32 239.255359,32 C240.243889,32 241.152125,32.162416 241.980068,32.488537 C242.806694,32.814658 243.517488,33.2851487 244.111132,33.9012982 C244.704776,34.5174477 245.166792,35.2663659 245.499812,36.1467636 C245.832832,37.0271614 246,38.0313047 246,39.1579044 L246,39.1579044 Z M242,38 C242,37.1783145 241.76827,36.4737924 241.303423,35.8833505 C240.838575,35.2944502 240.141998,35 239.213691,35 C238.758557,35 238.340888,35.0770812 237.962072,35.2358684 C237.583256,35.3931141 237.251619,35.610483 236.96716,35.8833505 C236.682701,36.1577595 236.455134,36.4784173 236.284459,36.8468654 C236.113784,37.2153135 236.018039,37.6007194 236,38 L242,38 L242,38 Z" id="Fill-8" fill="#84BF41"></path>
                            <path d="M257.816537,45.6443957 L257.816537,43.8923942 L257.763566,43.8923942 C257.604651,44.1798513 257.396641,44.4512009 257.142119,44.7039649 C256.886305,44.959207 256.586563,45.178517 256.241602,45.3643729 C255.897933,45.5514678 255.518088,45.7026306 255.103359,45.8215783 C254.68863,45.9405261 254.250646,46 253.793282,46 C252.909561,46 252.164083,45.8475982 251.555556,45.5427945 C250.947028,45.2379909 250.452196,44.8439764 250.072351,44.3619901 C249.692506,43.8800038 249.418605,43.3298704 249.251938,42.7115898 C249.083979,42.0933092 249,41.4638772 249,40.8195768 L249,33 L253.369509,33 L253.369509,39.8543652 C253.369509,40.2112085 253.395349,40.5494663 253.44832,40.8703774 C253.501292,41.1925276 253.603359,41.4799848 253.75323,41.7339878 C253.903101,41.9879909 254.102067,42.1874762 254.348837,42.3312047 C254.595607,42.4749333 254.922481,42.5467976 255.328165,42.5467976 C256.086563,42.5467976 256.665375,42.276687 257.062016,41.7339878 C257.458656,41.1925276 257.657623,40.5581395 257.657623,39.8295844 L257.657623,33 L262,33 L262,45.6443957 L257.816537,45.6443957" id="Fill-9" fill="#84BF41"></path>
                        </g>
                    </g>
                </g>
            </g>
        </g>
    </g>
</svg>