<?xml version="1.0" encoding="UTF-8" standalone="no"?>
<svg width="250px" height="250px" viewBox="0 0 250 250" version="1.1" xmlns="http://www.w3.org/2000/svg" xmlns:xlink="http://www.w3.org/1999/xlink" xmlns:sketch="http://www.bohemiancoding.com/sketch/ns">
    <!-- Generator: Sketch 3.0 (7573) - http://www.bohemiancoding.com/sketch -->
    <title>p_you</title>
    <description>Created with Sketch.</description>
    <defs>
        <path id="path-1" d="M125,250 C194.035597,250 250,194.035597 250,125 C250,55.9644029 194.035597,0 125,0 C55.9644029,0 0,55.9644029 0,125 C0,194.035597 55.9644029,250 125,250 Z"></path>
    </defs>
    <g id="desktop" stroke="none" stroke-width="1" fill="none" fill-rule="evenodd" sketch:type="MSPage">
        <g id="overview" sketch:type="MSArtboardGroup" transform="translate(-720.000000, -9712.000000)">
            <g sketch:type="MSLayerGroup" id="team">
                <g transform="translate(315.000000, 8612.000000)">
                    <g id="you-?" transform="translate(323.000000, 1100.000000)">
                        <g id="p_you" transform="translate(82.000000, 0.000000)">
                            <mask id="mask-2" sketch:name="Oval 19" fill="white">
                                <use xlink:href="#path-1"></use>
                            </mask>
                            <use id="Oval-19" fill="#DFE2E6" sketch:type="MSShapeGroup" xlink:href="#path-1"></use>
                            <path d="M230.842267,222.8412 C223.9364,209.0488 201.219733,200.7316 169.779867,189.216667 C165.337067,187.592667 160.712533,185.899067 155.933333,184.116533 L155.933333,159.114667 C159.073067,155.673333 167.030667,145.453733 167.807867,129.5772 C169.9964,127.9068 171.744133,124.755467 172.753333,120.478933 C174.358,113.6852 173.5112,105.607733 168.507733,101.114667 C168.844133,100.233067 169.257867,99.1890667 169.6484,98.2069333 C173.3488,88.8805333 180.235333,71.5230667 177.544133,58.0516 C174.4972,42.8169333 152.321867,36 131.697067,36 C116.6248,36 98.2813333,39.7777333 93.042,50.1868 C87.2458667,50.7204 82.8069333,53.0133333 79.8296,57.0308 C71.6593333,68.0469333 77.7145333,88.0182667 80.9625333,98.7482667 C81.1906667,99.5022667 81.4342667,100.302667 81.6392,100.987067 C76.5081333,105.4492 75.6265333,113.619467 77.2466667,120.478933 C78.2558667,124.755467 80.0036,127.910667 82.1921333,129.5772 C82.9616,145.152133 90.7297333,154.335467 94.0666667,157.583467 L94.0666667,184.116533 C89.2797333,185.902933 84.6513333,187.596533 80.2008,189.2244 C48.7648,200.735467 26.0481333,209.0488 19.1577333,222.8412 C9.116,242.928533 9,263.274933 9,264.133333 C9,266.267733 10.7322667,268 12.8666667,268 L237.133333,268 C239.267733,268 241,266.267733 241,264.133333 C241,263.274933 240.884,242.928533 230.842267,222.8412" id="Imported-Layers" fill="#CBD0D4" sketch:type="MSShapeGroup" mask="url(#mask-2)"></path>
                        </g>
                    </g>
                </g>
            </g>
        </g>
    </g>
</svg>