<?xml version="1.0" encoding="UTF-8" standalone="no"?>
<svg width="32px" height="32px" viewBox="0 0 32 32" version="1.1" xmlns="http://www.w3.org/2000/svg" xmlns:xlink="http://www.w3.org/1999/xlink" xmlns:sketch="http://www.bohemiancoding.com/sketch/ns">
    <!-- Generator: Sketch 3.0 (7573) - http://www.bohemiancoding.com/sketch -->
    <title>twitter</title>
    <description>Created with Sketch.</description>
    <defs>
        <path id="path-1" d="M0.0384,0 L32,0 L32,32 L0.0384,32 L0.0384,0 Z"></path>
    </defs>
    <g id="desktop" stroke="none" stroke-width="1" fill="none" fill-rule="evenodd" sketch:type="MSPage">
        <g id="overview" sketch:type="MSArtboardGroup" transform="translate(-1620.000000, -12431.000000)">
            <g sketch:type="MSLayerGroup" id="footer">
                <g transform="translate(204.000000, 12417.000000)">
                    <g id="twitter" transform="translate(1416.000000, 14.000000)">
                        <mask id="mask-2" sketch:name="Clip 2" fill="white">
                            <use xlink:href="#path-1"></use>
                        </mask>
                        <g id="Clip-2"></g>
                        <path d="M16,0 C7.16352,0 0,7.16416 0,16 C0,24.83648 7.16352,32 16,32 C24.83648,32 32,24.83648 32,16 C32,7.16416 24.83648,0 16,0 L16,0 Z M24.91776,12.144 C24.9248,12.336 24.9312,12.53248 24.9312,12.72768 C24.9312,18.70784 20.38016,25.6 12.05632,25.6 C9.50016,25.6 7.12128,24.84992 5.12,23.56736 C5.47264,23.6096 5.8336,23.63136 6.19968,23.63136 C8.32,23.63136 10.27008,22.90624 11.81888,21.69408 C9.84,21.6576 8.16896,20.35136 7.59232,18.5536 C7.8688,18.60608 8.15232,18.63232 8.4448,18.63232 C8.85504,18.63232 9.25504,18.57728 9.6352,18.47616 C7.5648,18.06016 6.00512,16.23232 6.00512,14.03968 L6.00512,13.98272 C6.61632,14.32128 7.3152,14.5248 8.05632,14.5472 C6.84032,13.7376 6.04352,12.35264 6.04352,10.78144 C6.04352,9.9552 6.26624,9.1776 6.65472,8.50752 C8.8864,11.2448 12.22144,13.04512 15.98272,13.2352 C15.90528,12.90496 15.86368,12.55744 15.86368,12.2048 C15.86368,9.70624 17.88992,7.68 20.38976,7.68 C21.69152,7.68 22.86592,8.22912 23.69216,9.10848 C24.72384,8.90752 25.69216,8.52992 26.5664,8.01152 C26.22784,9.06752 25.50976,9.9552 24.57472,10.51392 C25.4912,10.40384 26.3648,10.16128 27.17504,9.80032 C26.56896,10.70976 25.80224,11.50656 24.91776,12.144 L24.91776,12.144 Z" id="Fill-1" fill="#FFFFFF" sketch:type="MSShapeGroup" mask="url(#mask-2)"></path>
                    </g>
                </g>
            </g>
        </g>
    </g>
</svg>